<?xml version="1.0" encoding="UTF-8" standalone="no"?>
<!DOCTYPE svg PUBLIC "-//W3C//DTD SVG 1.1//EN"
 "http://www.w3.org/Graphics/SVG/1.1/DTD/svg11.dtd">
<!-- Generated by graphviz version 2.40.1 (20161225.0304)
 -->
<!-- Title: dependencies Pages: 1 -->
<svg width="1508pt" height="211pt"
 viewBox="0.00 0.00 1508.00 211.00" xmlns="http://www.w3.org/2000/svg" xmlns:xlink="http://www.w3.org/1999/xlink">
<g id="graph0" class="graph" transform="scale(1 1) rotate(0) translate(4 207)">
<title>dependencies</title>
<polygon fill="#ffffff" stroke="transparent" points="-4,4 -4,-207 1504,-207 1504,4 -4,4"/>
<text text-anchor="start" x="729.0091" y="-42.4" font-family="sans-serif" font-weight="bold" font-size="14.00" fill="#000000">Legend</text>
<polygon fill="#ffffb3" stroke="transparent" points="516,-10 516,-30 536,-30 536,-10 516,-10"/>
<text text-anchor="start" x="539.629" y="-15.4" font-family="sans-serif" font-size="14.00" fill="#000000"> &#160;Declarations</text>
<polygon fill="#8dd3c7" stroke="transparent" points="629,-10 629,-30 649,-30 649,-10 629,-10"/>
<text text-anchor="start" x="652.7251" y="-15.4" font-family="sans-serif" font-size="14.00" fill="#000000"> &#160;Module</text>
<polygon fill="#80b1d3" stroke="transparent" points="715,-10 715,-30 735,-30 735,-10 715,-10"/>
<text text-anchor="start" x="738.7812" y="-15.4" font-family="sans-serif" font-size="14.00" fill="#000000"> &#160;Bootstrap</text>
<polygon fill="#fdb462" stroke="transparent" points="812,-10 812,-30 832,-30 832,-10 812,-10"/>
<text text-anchor="start" x="835.6732" y="-15.4" font-family="sans-serif" font-size="14.00" fill="#000000"> &#160;Providers</text>
<polygon fill="#fb8072" stroke="transparent" points="908,-10 908,-30 928,-30 928,-10 908,-10"/>
<text text-anchor="start" x="931.7258" y="-15.4" font-family="sans-serif" font-size="14.00" fill="#000000"> &#160;Exports</text>
<g id="clust1" class="cluster">
<title>cluster_DashboardModule</title>
<polygon fill="none" stroke="#000000" stroke-dasharray="1,5" points="8,-70 8,-195 1492,-195 1492,-70 8,-70"/>
</g>
<g id="clust2" class="cluster">
<title>cluster_DashboardModule_declarations</title>
<polygon fill="none" stroke="#000000" points="1364,-78 1364,-130 1484,-130 1484,-78 1364,-78"/>
</g>
<g id="clust4" class="cluster">
<title>cluster_DashboardModule_imports</title>
<polygon fill="none" stroke="#000000" points="16,-78 16,-130 1356,-130 1356,-78 16,-78"/>
</g>
<!-- DashboardPage -->
<g id="node1" class="node">
<title>DashboardPage</title>
<polygon fill="#ffffb3" stroke="#000000" points="1475.8529,-122 1372.1471,-122 1372.1471,-86 1475.8529,-86 1475.8529,-122"/>
<text text-anchor="middle" x="1424" y="-99.8" font-family="Times,serif" font-size="14.00" fill="#000000">DashboardPage</text>
</g>
<!-- DashboardModule -->
<g id="node2" class="node">
<title>DashboardModule</title>
<polygon fill="#8dd3c7" stroke="#000000" points="879.191,-187 876.191,-191 855.191,-191 852.191,-187 758.809,-187 758.809,-151 879.191,-151 879.191,-187"/>
<text text-anchor="middle" x="819" y="-164.8" font-family="Times,serif" font-size="14.00" fill="#000000">DashboardModule</text>
</g>
<!-- DashboardPage&#45;&gt;DashboardModule -->
<g id="edge1" class="edge">
<title>DashboardPage&#45;&gt;DashboardModule</title>
<path fill="none" stroke="#000000" d="M1424,-122.0908C1424,-145.1328 1424,-182 1424,-182 1424,-182 889.2216,-182 889.2216,-182"/>
<polygon fill="#000000" stroke="#000000" points="889.2216,-178.5001 879.2216,-182 889.2215,-185.5001 889.2216,-178.5001"/>
</g>
<!-- CommonModule -->
<g id="node3" class="node">
<title>CommonModule</title>
<polygon fill="#8dd3c7" stroke="#000000" points="1347.6681,-122 1344.6681,-126 1323.6681,-126 1320.6681,-122 1236.3319,-122 1236.3319,-86 1347.6681,-86 1347.6681,-122"/>
<text text-anchor="middle" x="1292" y="-99.8" font-family="Times,serif" font-size="14.00" fill="#000000">CommonModule</text>
</g>
<!-- CommonModule&#45;&gt;DashboardModule -->
<g id="edge2" class="edge">
<title>CommonModule&#45;&gt;DashboardModule</title>
<path fill="none" stroke="#000000" d="M1292,-122.2843C1292,-143.3211 1292,-175 1292,-175 1292,-175 889.3862,-175 889.3862,-175"/>
<polygon fill="#000000" stroke="#000000" points="889.3863,-171.5001 879.3862,-175 889.3862,-178.5001 889.3863,-171.5001"/>
</g>
<!-- FormsModule -->
<g id="node4" class="node">
<title>FormsModule</title>
<polygon fill="#8dd3c7" stroke="#000000" points="1218.8288,-122 1215.8288,-126 1194.8288,-126 1191.8288,-122 1123.1712,-122 1123.1712,-86 1218.8288,-86 1218.8288,-122"/>
<text text-anchor="middle" x="1171" y="-99.8" font-family="Times,serif" font-size="14.00" fill="#000000">FormsModule</text>
</g>
<!-- FormsModule&#45;&gt;DashboardModule -->
<g id="edge3" class="edge">
<title>FormsModule&#45;&gt;DashboardModule</title>
<path fill="none" stroke="#000000" d="M1171,-122.1061C1171,-141.3391 1171,-169 1171,-169 1171,-169 889.111,-169 889.111,-169"/>
<polygon fill="#000000" stroke="#000000" points="889.111,-165.5001 879.111,-169 889.111,-172.5001 889.111,-165.5001"/>
</g>
<!-- IonicModule -->
<g id="node5" class="node">
<title>IonicModule</title>
<polygon fill="#8dd3c7" stroke="#000000" points="1105.3162,-122 1102.3162,-126 1081.3162,-126 1078.3162,-122 1016.6838,-122 1016.6838,-86 1105.3162,-86 1105.3162,-122"/>
<text text-anchor="middle" x="1061" y="-99.8" font-family="Times,serif" font-size="14.00" fill="#000000">IonicModule</text>
</g>
<!-- IonicModule&#45;&gt;DashboardModule -->
<g id="edge4" class="edge">
<title>IonicModule&#45;&gt;DashboardModule</title>
<path fill="none" stroke="#000000" d="M1061,-122.0225C1061,-139.3734 1061,-163 1061,-163 1061,-163 889.1312,-163 889.1312,-163"/>
<polygon fill="#000000" stroke="#000000" points="889.1312,-159.5001 879.1312,-163 889.1311,-166.5001 889.1312,-159.5001"/>
</g>
<!-- MatIconModule -->
<g id="node6" class="node">
<title>MatIconModule</title>
<polygon fill="#8dd3c7" stroke="#000000" points="998.4748,-122 995.4748,-126 974.4748,-126 971.4748,-122 891.5252,-122 891.5252,-86 998.4748,-86 998.4748,-122"/>
<text text-anchor="middle" x="945" y="-99.8" font-family="Times,serif" font-size="14.00" fill="#000000">MatIconModule</text>
</g>
<!-- MatIconModule&#45;&gt;DashboardModule -->
<g id="edge5" class="edge">
<title>MatIconModule&#45;&gt;DashboardModule</title>
<path fill="none" stroke="#000000" d="M945,-122.2396C945,-137.5706 945,-157 945,-157 945,-157 889.4167,-157 889.4167,-157"/>
<polygon fill="#000000" stroke="#000000" points="889.4167,-153.5001 879.4167,-157 889.4166,-160.5001 889.4167,-153.5001"/>
</g>
<!-- MatCardModule -->
<g id="node7" class="node">
<title>MatCardModule</title>
<polygon fill="#8dd3c7" stroke="#000000" points="873.8118,-122 870.8118,-126 849.8118,-126 846.8118,-122 764.1882,-122 764.1882,-86 873.8118,-86 873.8118,-122"/>
<text text-anchor="middle" x="819" y="-99.8" font-family="Times,serif" font-size="14.00" fill="#000000">MatCardModule</text>
</g>
<!-- MatCardModule&#45;&gt;DashboardModule -->
<g id="edge6" class="edge">
<title>MatCardModule&#45;&gt;DashboardModule</title>
<path fill="none" stroke="#000000" d="M819,-122.1061C819,-122.1061 819,-140.991 819,-140.991"/>
<polygon fill="#000000" stroke="#000000" points="815.5001,-140.9909 819,-150.991 822.5001,-140.991 815.5001,-140.9909"/>
</g>
<!-- MatListModule -->
<g id="node8" class="node">
<title>MatListModule</title>
<polygon fill="#8dd3c7" stroke="#000000" points="745.8781,-122 742.8781,-126 721.8781,-126 718.8781,-122 642.1219,-122 642.1219,-86 745.8781,-86 745.8781,-122"/>
<text text-anchor="middle" x="694" y="-99.8" font-family="Times,serif" font-size="14.00" fill="#000000">MatListModule</text>
</g>
<!-- MatListModule&#45;&gt;DashboardModule -->
<g id="edge7" class="edge">
<title>MatListModule&#45;&gt;DashboardModule</title>
<path fill="none" stroke="#000000" d="M694,-122.2396C694,-137.5706 694,-157 694,-157 694,-157 748.6969,-157 748.6969,-157"/>
<polygon fill="#000000" stroke="#000000" points="748.6969,-160.5001 758.6969,-157 748.6968,-153.5001 748.6969,-160.5001"/>
</g>
<!-- MatGridListModule -->
<g id="node9" class="node">
<title>MatGridListModule</title>
<polygon fill="#8dd3c7" stroke="#000000" points="623.5366,-122 620.5366,-126 599.5366,-126 596.5366,-122 494.4634,-122 494.4634,-86 623.5366,-86 623.5366,-122"/>
<text text-anchor="middle" x="559" y="-99.8" font-family="Times,serif" font-size="14.00" fill="#000000">MatGridListModule</text>
</g>
<!-- MatGridListModule&#45;&gt;DashboardModule -->
<g id="edge8" class="edge">
<title>MatGridListModule&#45;&gt;DashboardModule</title>
<path fill="none" stroke="#000000" d="M559,-122.0225C559,-139.3734 559,-163 559,-163 559,-163 748.6973,-163 748.6973,-163"/>
<polygon fill="#000000" stroke="#000000" points="748.6973,-166.5001 758.6973,-163 748.6972,-159.5001 748.6973,-166.5001"/>
</g>
<!-- GoogleChartModule -->
<g id="node10" class="node">
<title>GoogleChartModule</title>
<polygon fill="#8dd3c7" stroke="#000000" points="475.8641,-122 472.8641,-126 451.8641,-126 448.8641,-122 344.1359,-122 344.1359,-86 475.8641,-86 475.8641,-122"/>
<text text-anchor="middle" x="410" y="-99.8" font-family="Times,serif" font-size="14.00" fill="#000000">GoogleChartModule</text>
</g>
<!-- GoogleChartModule&#45;&gt;DashboardModule -->
<g id="edge9" class="edge">
<title>GoogleChartModule&#45;&gt;DashboardModule</title>
<path fill="none" stroke="#000000" d="M410,-122.1061C410,-141.3391 410,-169 410,-169 410,-169 748.6506,-169 748.6506,-169"/>
<polygon fill="#000000" stroke="#000000" points="748.6507,-172.5001 758.6506,-169 748.6506,-165.5001 748.6507,-172.5001"/>
</g>
<!-- SpinnerModule -->
<g id="node11" class="node">
<title>SpinnerModule</title>
<polygon fill="#8dd3c7" stroke="#000000" points="326.5982,-122 323.5982,-126 302.5982,-126 299.5982,-122 223.4018,-122 223.4018,-86 326.5982,-86 326.5982,-122"/>
<text text-anchor="middle" x="275" y="-99.8" font-family="Times,serif" font-size="14.00" fill="#000000">SpinnerModule</text>
</g>
<!-- SpinnerModule&#45;&gt;DashboardModule -->
<g id="edge10" class="edge">
<title>SpinnerModule&#45;&gt;DashboardModule</title>
<path fill="none" stroke="#000000" d="M275,-122.2843C275,-143.3211 275,-175 275,-175 275,-175 748.704,-175 748.704,-175"/>
<polygon fill="#000000" stroke="#000000" points="748.704,-178.5001 758.704,-175 748.7039,-171.5001 748.704,-178.5001"/>
</g>
<!-- RouterModule.forChild(args) -->
<g id="node12" class="node">
<title>RouterModule.forChild(args)</title>
<polygon fill="#8dd3c7" stroke="#000000" points="205.7323,-122 202.7323,-126 181.7323,-126 178.7323,-122 24.2677,-122 24.2677,-86 205.7323,-86 205.7323,-122"/>
<text text-anchor="middle" x="115" y="-99.8" font-family="Times,serif" font-size="14.00" fill="#000000">RouterModule.forChild(args)</text>
</g>
<!-- RouterModule.forChild(args)&#45;&gt;DashboardModule -->
<g id="edge11" class="edge">
<title>RouterModule.forChild(args)&#45;&gt;DashboardModule</title>
<path fill="none" stroke="#000000" d="M115,-122.0908C115,-145.1328 115,-182 115,-182 115,-182 748.673,-182 748.673,-182"/>
<polygon fill="#000000" stroke="#000000" points="748.6731,-185.5001 758.673,-182 748.673,-178.5001 748.6731,-185.5001"/>
</g>
</g>
</svg>
