<?xml version="1.0" encoding="UTF-8" standalone="no"?>
<!DOCTYPE svg PUBLIC "-//W3C//DTD SVG 1.1//EN"
 "http://www.w3.org/Graphics/SVG/1.1/DTD/svg11.dtd">
<!-- Generated by graphviz version 2.40.1 (20161225.0304)
 -->
<!-- Title: dependencies Pages: 1 -->
<svg width="1388pt" height="211pt"
 viewBox="0.00 0.00 1388.00 211.00" xmlns="http://www.w3.org/2000/svg" xmlns:xlink="http://www.w3.org/1999/xlink">
<g id="graph0" class="graph" transform="scale(1 1) rotate(0) translate(4 207)">
<title>dependencies</title>
<polygon fill="#ffffff" stroke="transparent" points="-4,4 -4,-207 1384,-207 1384,4 -4,4"/>
<text text-anchor="start" x="669.0091" y="-42.4" font-family="sans-serif" font-weight="bold" font-size="14.00" fill="#000000">Legend</text>
<polygon fill="#ffffb3" stroke="transparent" points="456,-10 456,-30 476,-30 476,-10 456,-10"/>
<text text-anchor="start" x="479.629" y="-15.4" font-family="sans-serif" font-size="14.00" fill="#000000"> &#160;Declarations</text>
<polygon fill="#8dd3c7" stroke="transparent" points="569,-10 569,-30 589,-30 589,-10 569,-10"/>
<text text-anchor="start" x="592.7251" y="-15.4" font-family="sans-serif" font-size="14.00" fill="#000000"> &#160;Module</text>
<polygon fill="#80b1d3" stroke="transparent" points="655,-10 655,-30 675,-30 675,-10 655,-10"/>
<text text-anchor="start" x="678.7812" y="-15.4" font-family="sans-serif" font-size="14.00" fill="#000000"> &#160;Bootstrap</text>
<polygon fill="#fdb462" stroke="transparent" points="752,-10 752,-30 772,-30 772,-10 752,-10"/>
<text text-anchor="start" x="775.6732" y="-15.4" font-family="sans-serif" font-size="14.00" fill="#000000"> &#160;Providers</text>
<polygon fill="#fb8072" stroke="transparent" points="848,-10 848,-30 868,-30 868,-10 848,-10"/>
<text text-anchor="start" x="871.7258" y="-15.4" font-family="sans-serif" font-size="14.00" fill="#000000"> &#160;Exports</text>
<g id="clust1" class="cluster">
<title>cluster_DashboardModule</title>
<polygon fill="none" stroke="#000000" stroke-dasharray="1,5" points="8,-70 8,-195 1372,-195 1372,-70 8,-70"/>
</g>
<g id="clust2" class="cluster">
<title>cluster_DashboardModule_declarations</title>
<polygon fill="none" stroke="#000000" points="1244,-78 1244,-130 1364,-130 1364,-78 1244,-78"/>
</g>
<g id="clust4" class="cluster">
<title>cluster_DashboardModule_imports</title>
<polygon fill="none" stroke="#000000" points="16,-78 16,-130 1236,-130 1236,-78 16,-78"/>
</g>
<!-- DashboardPage -->
<g id="node1" class="node">
<title>DashboardPage</title>
<polygon fill="#ffffb3" stroke="#000000" points="1355.8529,-122 1252.1471,-122 1252.1471,-86 1355.8529,-86 1355.8529,-122"/>
<text text-anchor="middle" x="1304" y="-99.8" font-family="Times,serif" font-size="14.00" fill="#000000">DashboardPage</text>
</g>
<!-- DashboardModule -->
<g id="node2" class="node">
<title>DashboardModule</title>
<polygon fill="#8dd3c7" stroke="#000000" points="822.191,-187 819.191,-191 798.191,-191 795.191,-187 701.809,-187 701.809,-151 822.191,-151 822.191,-187"/>
<text text-anchor="middle" x="762" y="-164.8" font-family="Times,serif" font-size="14.00" fill="#000000">DashboardModule</text>
</g>
<!-- DashboardPage&#45;&gt;DashboardModule -->
<g id="edge1" class="edge">
<title>DashboardPage&#45;&gt;DashboardModule</title>
<path fill="none" stroke="#000000" d="M1304,-122.0109C1304,-144.4852 1304,-180 1304,-180 1304,-180 832.3353,-180 832.3353,-180"/>
<polygon fill="#000000" stroke="#000000" points="832.3353,-176.5001 822.3353,-180 832.3352,-183.5001 832.3353,-176.5001"/>
</g>
<!-- CommonModule -->
<g id="node3" class="node">
<title>CommonModule</title>
<polygon fill="#8dd3c7" stroke="#000000" points="1227.6681,-122 1224.6681,-126 1203.6681,-126 1200.6681,-122 1116.3319,-122 1116.3319,-86 1227.6681,-86 1227.6681,-122"/>
<text text-anchor="middle" x="1172" y="-99.8" font-family="Times,serif" font-size="14.00" fill="#000000">CommonModule</text>
</g>
<!-- CommonModule&#45;&gt;DashboardModule -->
<g id="edge2" class="edge">
<title>CommonModule&#45;&gt;DashboardModule</title>
<path fill="none" stroke="#000000" d="M1172,-122.1289C1172,-142.5724 1172,-173 1172,-173 1172,-173 832.4969,-173 832.4969,-173"/>
<polygon fill="#000000" stroke="#000000" points="832.4969,-169.5001 822.4969,-173 832.4969,-176.5001 832.4969,-169.5001"/>
</g>
<!-- FormsModule -->
<g id="node4" class="node">
<title>FormsModule</title>
<polygon fill="#8dd3c7" stroke="#000000" points="1098.8288,-122 1095.8288,-126 1074.8288,-126 1071.8288,-122 1003.1712,-122 1003.1712,-86 1098.8288,-86 1098.8288,-122"/>
<text text-anchor="middle" x="1051" y="-99.8" font-family="Times,serif" font-size="14.00" fill="#000000">FormsModule</text>
</g>
<!-- FormsModule&#45;&gt;DashboardModule -->
<g id="edge3" class="edge">
<title>FormsModule&#45;&gt;DashboardModule</title>
<path fill="none" stroke="#000000" d="M1051,-122.2667C1051,-140.5552 1051,-166 1051,-166 1051,-166 832.2321,-166 832.2321,-166"/>
<polygon fill="#000000" stroke="#000000" points="832.2321,-162.5001 822.2321,-166 832.2321,-169.5001 832.2321,-162.5001"/>
</g>
<!-- IonicModule -->
<g id="node5" class="node">
<title>IonicModule</title>
<polygon fill="#8dd3c7" stroke="#000000" points="985.3162,-122 982.3162,-126 961.3162,-126 958.3162,-122 896.6838,-122 896.6838,-86 985.3162,-86 985.3162,-122"/>
<text text-anchor="middle" x="941" y="-99.8" font-family="Times,serif" font-size="14.00" fill="#000000">IonicModule</text>
</g>
<!-- IonicModule&#45;&gt;DashboardModule -->
<g id="edge4" class="edge">
<title>IonicModule&#45;&gt;DashboardModule</title>
<path fill="none" stroke="#000000" d="M941,-122.0091C941,-138.0494 941,-159 941,-159 941,-159 832.1024,-159 832.1024,-159"/>
<polygon fill="#000000" stroke="#000000" points="832.1024,-155.5001 822.1024,-159 832.1023,-162.5001 832.1024,-155.5001"/>
</g>
<!-- MatIconModule -->
<g id="node6" class="node">
<title>MatIconModule</title>
<polygon fill="#8dd3c7" stroke="#000000" points="878.4748,-122 875.4748,-126 854.4748,-126 851.4748,-122 771.5252,-122 771.5252,-86 878.4748,-86 878.4748,-122"/>
<text text-anchor="middle" x="825" y="-99.8" font-family="Times,serif" font-size="14.00" fill="#000000">MatIconModule</text>
</g>
<!-- MatIconModule&#45;&gt;DashboardModule -->
<g id="edge5" class="edge">
<title>MatIconModule&#45;&gt;DashboardModule</title>
<path fill="none" stroke="#000000" d="M796.804,-122.1061C796.804,-122.1061 796.804,-140.991 796.804,-140.991"/>
<polygon fill="#000000" stroke="#000000" points="793.3041,-140.9909 796.804,-150.991 800.3041,-140.991 793.3041,-140.9909"/>
</g>
<!-- MatCardModule -->
<g id="node7" class="node">
<title>MatCardModule</title>
<polygon fill="#8dd3c7" stroke="#000000" points="753.8118,-122 750.8118,-126 729.8118,-126 726.8118,-122 644.1882,-122 644.1882,-86 753.8118,-86 753.8118,-122"/>
<text text-anchor="middle" x="699" y="-99.8" font-family="Times,serif" font-size="14.00" fill="#000000">MatCardModule</text>
</g>
<!-- MatCardModule&#45;&gt;DashboardModule -->
<g id="edge6" class="edge">
<title>MatCardModule&#45;&gt;DashboardModule</title>
<path fill="none" stroke="#000000" d="M727.7802,-122.1061C727.7802,-122.1061 727.7802,-140.991 727.7802,-140.991"/>
<polygon fill="#000000" stroke="#000000" points="724.2802,-140.9909 727.7802,-150.991 731.2802,-140.991 724.2802,-140.9909"/>
</g>
<!-- MatListModule -->
<g id="node8" class="node">
<title>MatListModule</title>
<polygon fill="#8dd3c7" stroke="#000000" points="625.8781,-122 622.8781,-126 601.8781,-126 598.8781,-122 522.1219,-122 522.1219,-86 625.8781,-86 625.8781,-122"/>
<text text-anchor="middle" x="574" y="-99.8" font-family="Times,serif" font-size="14.00" fill="#000000">MatListModule</text>
</g>
<!-- MatListModule&#45;&gt;DashboardModule -->
<g id="edge7" class="edge">
<title>MatListModule&#45;&gt;DashboardModule</title>
<path fill="none" stroke="#000000" d="M574,-122.0091C574,-138.0494 574,-159 574,-159 574,-159 691.7399,-159 691.7399,-159"/>
<polygon fill="#000000" stroke="#000000" points="691.7399,-162.5001 701.7399,-159 691.7399,-155.5001 691.7399,-162.5001"/>
</g>
<!-- MatGridListModule -->
<g id="node9" class="node">
<title>MatGridListModule</title>
<polygon fill="#8dd3c7" stroke="#000000" points="503.5366,-122 500.5366,-126 479.5366,-126 476.5366,-122 374.4634,-122 374.4634,-86 503.5366,-86 503.5366,-122"/>
<text text-anchor="middle" x="439" y="-99.8" font-family="Times,serif" font-size="14.00" fill="#000000">MatGridListModule</text>
</g>
<!-- MatGridListModule&#45;&gt;DashboardModule -->
<g id="edge8" class="edge">
<title>MatGridListModule&#45;&gt;DashboardModule</title>
<path fill="none" stroke="#000000" d="M439,-122.2667C439,-140.5552 439,-166 439,-166 439,-166 691.6251,-166 691.6251,-166"/>
<polygon fill="#000000" stroke="#000000" points="691.6251,-169.5001 701.6251,-166 691.625,-162.5001 691.6251,-169.5001"/>
</g>
<!-- GoogleChartModule -->
<g id="node10" class="node">
<title>GoogleChartModule</title>
<polygon fill="#8dd3c7" stroke="#000000" points="355.8641,-122 352.8641,-126 331.8641,-126 328.8641,-122 224.1359,-122 224.1359,-86 355.8641,-86 355.8641,-122"/>
<text text-anchor="middle" x="290" y="-99.8" font-family="Times,serif" font-size="14.00" fill="#000000">GoogleChartModule</text>
</g>
<!-- GoogleChartModule&#45;&gt;DashboardModule -->
<g id="edge9" class="edge">
<title>GoogleChartModule&#45;&gt;DashboardModule</title>
<path fill="none" stroke="#000000" d="M290,-122.1289C290,-142.5724 290,-173 290,-173 290,-173 691.7415,-173 691.7415,-173"/>
<polygon fill="#000000" stroke="#000000" points="691.7415,-176.5001 701.7415,-173 691.7414,-169.5001 691.7415,-176.5001"/>
</g>
<!-- RouterModule.forChild(args) -->
<g id="node11" class="node">
<title>RouterModule.forChild(args)</title>
<polygon fill="#8dd3c7" stroke="#000000" points="205.7323,-122 202.7323,-126 181.7323,-126 178.7323,-122 24.2677,-122 24.2677,-86 205.7323,-86 205.7323,-122"/>
<text text-anchor="middle" x="115" y="-99.8" font-family="Times,serif" font-size="14.00" fill="#000000">RouterModule.forChild(args)</text>
</g>
<!-- RouterModule.forChild(args)&#45;&gt;DashboardModule -->
<g id="edge10" class="edge">
<title>RouterModule.forChild(args)&#45;&gt;DashboardModule</title>
<path fill="none" stroke="#000000" d="M115,-122.0109C115,-144.4852 115,-180 115,-180 115,-180 691.7128,-180 691.7128,-180"/>
<polygon fill="#000000" stroke="#000000" points="691.7128,-183.5001 701.7128,-180 691.7128,-176.5001 691.7128,-183.5001"/>
</g>
</g>
</svg>
