<?xml version="1.0" encoding="UTF-8" standalone="no"?>
<!DOCTYPE svg PUBLIC "-//W3C//DTD SVG 1.1//EN"
 "http://www.w3.org/Graphics/SVG/1.1/DTD/svg11.dtd">
<!-- Generated by graphviz version 2.40.1 (20161225.0304)
 -->
<!-- Title: dependencies Pages: 1 -->
<svg width="807pt" height="284pt"
 viewBox="0.00 0.00 807.00 284.00" xmlns="http://www.w3.org/2000/svg" xmlns:xlink="http://www.w3.org/1999/xlink">
<g id="graph0" class="graph" transform="scale(1 1) rotate(0) translate(4 280)">
<title>dependencies</title>
<polygon fill="#ffffff" stroke="transparent" points="-4,4 -4,-280 803,-280 803,4 -4,4"/>
<text text-anchor="start" x="378.5091" y="-42.4" font-family="sans-serif" font-weight="bold" font-size="14.00" fill="#000000">Legend</text>
<polygon fill="#ffffb3" stroke="transparent" points="165.5,-10 165.5,-30 185.5,-30 185.5,-10 165.5,-10"/>
<text text-anchor="start" x="189.129" y="-15.4" font-family="sans-serif" font-size="14.00" fill="#000000"> &#160;Declarations</text>
<polygon fill="#8dd3c7" stroke="transparent" points="278.5,-10 278.5,-30 298.5,-30 298.5,-10 278.5,-10"/>
<text text-anchor="start" x="302.2251" y="-15.4" font-family="sans-serif" font-size="14.00" fill="#000000"> &#160;Module</text>
<polygon fill="#80b1d3" stroke="transparent" points="364.5,-10 364.5,-30 384.5,-30 384.5,-10 364.5,-10"/>
<text text-anchor="start" x="388.2812" y="-15.4" font-family="sans-serif" font-size="14.00" fill="#000000"> &#160;Bootstrap</text>
<polygon fill="#fdb462" stroke="transparent" points="461.5,-10 461.5,-30 481.5,-30 481.5,-10 461.5,-10"/>
<text text-anchor="start" x="485.1732" y="-15.4" font-family="sans-serif" font-size="14.00" fill="#000000"> &#160;Providers</text>
<polygon fill="#fb8072" stroke="transparent" points="557.5,-10 557.5,-30 577.5,-30 577.5,-10 557.5,-10"/>
<text text-anchor="start" x="581.2258" y="-15.4" font-family="sans-serif" font-size="14.00" fill="#000000"> &#160;Exports</text>
<g id="clust1" class="cluster">
<title>cluster_GoogleChartModule</title>
<polygon fill="none" stroke="#000000" stroke-dasharray="1,5" points="8,-70 8,-268 791,-268 791,-70 8,-70"/>
</g>
<g id="clust2" class="cluster">
<title>cluster_GoogleChartModule_declarations</title>
<polygon fill="none" stroke="#000000" points="613,-78 613,-130 783,-130 783,-78 613,-78"/>
</g>
<g id="clust4" class="cluster">
<title>cluster_GoogleChartModule_imports</title>
<polygon fill="none" stroke="#000000" points="16,-78 16,-130 605,-130 605,-78 16,-78"/>
</g>
<g id="clust5" class="cluster">
<title>cluster_GoogleChartModule_exports</title>
<polygon fill="none" stroke="#000000" points="336,-208 336,-260 510,-260 510,-208 336,-208"/>
</g>
<!-- GoogleChartComponent -->
<g id="node1" class="node">
<title>GoogleChartComponent</title>
<polygon fill="#ffffb3" stroke="#000000" points="774.647,-122 621.353,-122 621.353,-86 774.647,-86 774.647,-122"/>
<text text-anchor="middle" x="698" y="-99.8" font-family="Times,serif" font-size="14.00" fill="#000000">GoogleChartComponent</text>
</g>
<!-- GoogleChartModule -->
<g id="node2" class="node">
<title>GoogleChartModule</title>
<polygon fill="#8dd3c7" stroke="#000000" points="488.8641,-187 485.8641,-191 464.8641,-191 461.8641,-187 357.1359,-187 357.1359,-151 488.8641,-151 488.8641,-187"/>
<text text-anchor="middle" x="423" y="-164.8" font-family="Times,serif" font-size="14.00" fill="#000000">GoogleChartModule</text>
</g>
<!-- GoogleChartComponent&#45;&gt;GoogleChartModule -->
<g id="edge1" class="edge">
<title>GoogleChartComponent&#45;&gt;GoogleChartModule</title>
<path fill="none" stroke="#000000" d="M698,-122.2843C698,-143.3211 698,-175 698,-175 698,-175 498.8694,-175 498.8694,-175"/>
<polygon fill="#000000" stroke="#000000" points="498.8694,-171.5001 488.8694,-175 498.8693,-178.5001 498.8694,-171.5001"/>
</g>
<!-- GoogleChartComponent  -->
<g id="node7" class="node">
<title>GoogleChartComponent </title>
<polygon fill="#fb8072" stroke="#000000" points="501.6467,-252 344.3533,-252 344.3533,-216 501.6467,-216 501.6467,-252"/>
<text text-anchor="middle" x="423" y="-229.8" font-family="Times,serif" font-size="14.00" fill="#000000">GoogleChartComponent </text>
</g>
<!-- GoogleChartModule&#45;&gt;GoogleChartComponent  -->
<g id="edge6" class="edge">
<title>GoogleChartModule&#45;&gt;GoogleChartComponent </title>
<path fill="none" stroke="#000000" stroke-dasharray="5,2" d="M423,-187.1061C423,-187.1061 423,-205.991 423,-205.991"/>
<polygon fill="#000000" stroke="#000000" points="419.5001,-205.9909 423,-215.991 426.5001,-205.991 419.5001,-205.9909"/>
</g>
<!-- CommonModule -->
<g id="node3" class="node">
<title>CommonModule</title>
<polygon fill="#8dd3c7" stroke="#000000" points="596.6681,-122 593.6681,-126 572.6681,-126 569.6681,-122 485.3319,-122 485.3319,-86 596.6681,-86 596.6681,-122"/>
<text text-anchor="middle" x="541" y="-99.8" font-family="Times,serif" font-size="14.00" fill="#000000">CommonModule</text>
</g>
<!-- CommonModule&#45;&gt;GoogleChartModule -->
<g id="edge2" class="edge">
<title>CommonModule&#45;&gt;GoogleChartModule</title>
<path fill="none" stroke="#000000" d="M495.2527,-122.0225C495.2527,-139.3734 495.2527,-163 495.2527,-163 495.2527,-163 494.6366,-163 494.6366,-163"/>
<polygon fill="#000000" stroke="#000000" points="499.0925,-159.5002 489.0924,-163 499.0924,-166.5002 499.0925,-159.5002"/>
</g>
<!-- IonicModule -->
<g id="node4" class="node">
<title>IonicModule</title>
<polygon fill="#8dd3c7" stroke="#000000" points="467.3162,-122 464.3162,-126 443.3162,-126 440.3162,-122 378.6838,-122 378.6838,-86 467.3162,-86 467.3162,-122"/>
<text text-anchor="middle" x="423" y="-99.8" font-family="Times,serif" font-size="14.00" fill="#000000">IonicModule</text>
</g>
<!-- IonicModule&#45;&gt;GoogleChartModule -->
<g id="edge3" class="edge">
<title>IonicModule&#45;&gt;GoogleChartModule</title>
<path fill="none" stroke="#000000" d="M423,-122.1061C423,-122.1061 423,-140.991 423,-140.991"/>
<polygon fill="#000000" stroke="#000000" points="419.5001,-140.9909 423,-150.991 426.5001,-140.991 419.5001,-140.9909"/>
</g>
<!-- GoogleChartsModule -->
<g id="node5" class="node">
<title>GoogleChartsModule</title>
<polygon fill="#8dd3c7" stroke="#000000" points="360.8089,-122 357.8089,-126 336.8089,-126 333.8089,-122 223.1911,-122 223.1911,-86 360.8089,-86 360.8089,-122"/>
<text text-anchor="middle" x="292" y="-99.8" font-family="Times,serif" font-size="14.00" fill="#000000">GoogleChartsModule</text>
</g>
<!-- GoogleChartsModule&#45;&gt;GoogleChartModule -->
<g id="edge4" class="edge">
<title>GoogleChartsModule&#45;&gt;GoogleChartModule</title>
<path fill="none" stroke="#000000" d="M350.7474,-122.2843C350.7474,-143.3211 350.7474,-175 350.7474,-175 350.7474,-175 351.3634,-175 351.3634,-175"/>
<polygon fill="#000000" stroke="#000000" points="346.9076,-178.5002 356.9076,-175 346.9075,-171.5002 346.9076,-178.5002"/>
</g>
<!-- RouterModule.forChild(args) -->
<g id="node6" class="node">
<title>RouterModule.forChild(args)</title>
<polygon fill="#8dd3c7" stroke="#000000" points="205.7323,-122 202.7323,-126 181.7323,-126 178.7323,-122 24.2677,-122 24.2677,-86 205.7323,-86 205.7323,-122"/>
<text text-anchor="middle" x="115" y="-99.8" font-family="Times,serif" font-size="14.00" fill="#000000">RouterModule.forChild(args)</text>
</g>
<!-- RouterModule.forChild(args)&#45;&gt;GoogleChartModule -->
<g id="edge5" class="edge">
<title>RouterModule.forChild(args)&#45;&gt;GoogleChartModule</title>
<path fill="none" stroke="#000000" d="M115,-122.0225C115,-139.3734 115,-163 115,-163 115,-163 346.9263,-163 346.9263,-163"/>
<polygon fill="#000000" stroke="#000000" points="346.9263,-166.5001 356.9263,-163 346.9262,-159.5001 346.9263,-166.5001"/>
</g>
</g>
</svg>
