<?xml version="1.0" encoding="UTF-8" standalone="no"?>
<!DOCTYPE svg PUBLIC "-//W3C//DTD SVG 1.1//EN"
 "http://www.w3.org/Graphics/SVG/1.1/DTD/svg11.dtd">
<!-- Generated by graphviz version 2.40.1 (20161225.0304)
 -->
<!-- Title: dependencies Pages: 1 -->
<svg width="1834pt" height="211pt"
 viewBox="0.00 0.00 1834.00 211.00" xmlns="http://www.w3.org/2000/svg" xmlns:xlink="http://www.w3.org/1999/xlink">
<g id="graph0" class="graph" transform="scale(1 1) rotate(0) translate(4 207)">
<title>dependencies</title>
<polygon fill="#ffffff" stroke="transparent" points="-4,4 -4,-207 1830,-207 1830,4 -4,4"/>
<text text-anchor="start" x="892.0091" y="-42.4" font-family="sans-serif" font-weight="bold" font-size="14.00" fill="#000000">Legend</text>
<polygon fill="#ffffb3" stroke="transparent" points="679,-10 679,-30 699,-30 699,-10 679,-10"/>
<text text-anchor="start" x="702.629" y="-15.4" font-family="sans-serif" font-size="14.00" fill="#000000"> &#160;Declarations</text>
<polygon fill="#8dd3c7" stroke="transparent" points="792,-10 792,-30 812,-30 812,-10 792,-10"/>
<text text-anchor="start" x="815.7251" y="-15.4" font-family="sans-serif" font-size="14.00" fill="#000000"> &#160;Module</text>
<polygon fill="#80b1d3" stroke="transparent" points="878,-10 878,-30 898,-30 898,-10 878,-10"/>
<text text-anchor="start" x="901.7812" y="-15.4" font-family="sans-serif" font-size="14.00" fill="#000000"> &#160;Bootstrap</text>
<polygon fill="#fdb462" stroke="transparent" points="975,-10 975,-30 995,-30 995,-10 975,-10"/>
<text text-anchor="start" x="998.6732" y="-15.4" font-family="sans-serif" font-size="14.00" fill="#000000"> &#160;Providers</text>
<polygon fill="#fb8072" stroke="transparent" points="1071,-10 1071,-30 1091,-30 1091,-10 1071,-10"/>
<text text-anchor="start" x="1094.7258" y="-15.4" font-family="sans-serif" font-size="14.00" fill="#000000"> &#160;Exports</text>
<g id="clust1" class="cluster">
<title>cluster_AccountSettingModule</title>
<polygon fill="none" stroke="#000000" stroke-dasharray="1,5" points="8,-70 8,-195 1818,-195 1818,-70 8,-70"/>
</g>
<g id="clust2" class="cluster">
<title>cluster_AccountSettingModule_declarations</title>
<polygon fill="none" stroke="#000000" points="1664,-78 1664,-130 1810,-130 1810,-78 1664,-78"/>
</g>
<g id="clust4" class="cluster">
<title>cluster_AccountSettingModule_imports</title>
<polygon fill="none" stroke="#000000" points="16,-78 16,-130 1656,-130 1656,-78 16,-78"/>
</g>
<!-- AccountSettingPage -->
<g id="node1" class="node">
<title>AccountSettingPage</title>
<polygon fill="#ffffb3" stroke="#000000" points="1802.3076,-122 1671.6924,-122 1671.6924,-86 1802.3076,-86 1802.3076,-122"/>
<text text-anchor="middle" x="1737" y="-99.8" font-family="Times,serif" font-size="14.00" fill="#000000">AccountSettingPage</text>
</g>
<!-- AccountSettingModule -->
<g id="node2" class="node">
<title>AccountSettingModule</title>
<polygon fill="#8dd3c7" stroke="#000000" points="1037.1456,-187 1034.1456,-191 1013.1456,-191 1010.1456,-187 890.8544,-187 890.8544,-151 1037.1456,-151 1037.1456,-187"/>
<text text-anchor="middle" x="964" y="-164.8" font-family="Times,serif" font-size="14.00" fill="#000000">AccountSettingModule</text>
</g>
<!-- AccountSettingPage&#45;&gt;AccountSettingModule -->
<g id="edge1" class="edge">
<title>AccountSettingPage&#45;&gt;AccountSettingModule</title>
<path fill="none" stroke="#000000" d="M1737,-122.0908C1737,-145.1328 1737,-182 1737,-182 1737,-182 1047.4189,-182 1047.4189,-182"/>
<polygon fill="#000000" stroke="#000000" points="1047.4189,-178.5001 1037.4189,-182 1047.4188,-185.5001 1047.4189,-178.5001"/>
</g>
<!-- CommonModule -->
<g id="node3" class="node">
<title>CommonModule</title>
<polygon fill="#8dd3c7" stroke="#000000" points="1647.6681,-122 1644.6681,-126 1623.6681,-126 1620.6681,-122 1536.3319,-122 1536.3319,-86 1647.6681,-86 1647.6681,-122"/>
<text text-anchor="middle" x="1592" y="-99.8" font-family="Times,serif" font-size="14.00" fill="#000000">CommonModule</text>
</g>
<!-- CommonModule&#45;&gt;AccountSettingModule -->
<g id="edge2" class="edge">
<title>CommonModule&#45;&gt;AccountSettingModule</title>
<path fill="none" stroke="#000000" d="M1592,-122.0449C1592,-143.6623 1592,-177 1592,-177 1592,-177 1047.2686,-177 1047.2686,-177"/>
<polygon fill="#000000" stroke="#000000" points="1047.2687,-173.5001 1037.2686,-177 1047.2686,-180.5001 1047.2687,-173.5001"/>
</g>
<!-- FormsModule -->
<g id="node4" class="node">
<title>FormsModule</title>
<polygon fill="#8dd3c7" stroke="#000000" points="1518.8288,-122 1515.8288,-126 1494.8288,-126 1491.8288,-122 1423.1712,-122 1423.1712,-86 1518.8288,-86 1518.8288,-122"/>
<text text-anchor="middle" x="1471" y="-99.8" font-family="Times,serif" font-size="14.00" fill="#000000">FormsModule</text>
</g>
<!-- FormsModule&#45;&gt;AccountSettingModule -->
<g id="edge3" class="edge">
<title>FormsModule&#45;&gt;AccountSettingModule</title>
<path fill="none" stroke="#000000" d="M1471,-122.2228C1471,-142.3652 1471,-172 1471,-172 1471,-172 1047.1807,-172 1047.1807,-172"/>
<polygon fill="#000000" stroke="#000000" points="1047.1807,-168.5001 1037.1807,-172 1047.1807,-175.5001 1047.1807,-168.5001"/>
</g>
<!-- IonicModule -->
<g id="node5" class="node">
<title>IonicModule</title>
<polygon fill="#8dd3c7" stroke="#000000" points="1405.3162,-122 1402.3162,-126 1381.3162,-126 1378.3162,-122 1316.6838,-122 1316.6838,-86 1405.3162,-86 1405.3162,-122"/>
<text text-anchor="middle" x="1361" y="-99.8" font-family="Times,serif" font-size="14.00" fill="#000000">IonicModule</text>
</g>
<!-- IonicModule&#45;&gt;AccountSettingModule -->
<g id="edge4" class="edge">
<title>IonicModule&#45;&gt;AccountSettingModule</title>
<path fill="none" stroke="#000000" d="M1361,-122.2222C1361,-140.8285 1361,-167 1361,-167 1361,-167 1047.2786,-167 1047.2786,-167"/>
<polygon fill="#000000" stroke="#000000" points="1047.2786,-163.5001 1037.2786,-167 1047.2785,-170.5001 1047.2786,-163.5001"/>
</g>
<!-- MatInputModule -->
<g id="node6" class="node">
<title>MatInputModule</title>
<polygon fill="#8dd3c7" stroke="#000000" points="1298.6513,-122 1295.6513,-126 1274.6513,-126 1271.6513,-122 1187.3487,-122 1187.3487,-86 1298.6513,-86 1298.6513,-122"/>
<text text-anchor="middle" x="1243" y="-99.8" font-family="Times,serif" font-size="14.00" fill="#000000">MatInputModule</text>
</g>
<!-- MatInputModule&#45;&gt;AccountSettingModule -->
<g id="edge5" class="edge">
<title>MatInputModule&#45;&gt;AccountSettingModule</title>
<path fill="none" stroke="#000000" d="M1243,-122.0336C1243,-139.0597 1243,-162 1243,-162 1243,-162 1047.304,-162 1047.304,-162"/>
<polygon fill="#000000" stroke="#000000" points="1047.304,-158.5001 1037.304,-162 1047.3039,-165.5001 1047.304,-158.5001"/>
</g>
<!-- MatSelectModule -->
<g id="node7" class="node">
<title>MatSelectModule</title>
<polygon fill="#8dd3c7" stroke="#000000" points="1169.3076,-122 1166.3076,-126 1145.3076,-126 1142.3076,-122 1052.6924,-122 1052.6924,-86 1169.3076,-86 1169.3076,-122"/>
<text text-anchor="middle" x="1111" y="-99.8" font-family="Times,serif" font-size="14.00" fill="#000000">MatSelectModule</text>
</g>
<!-- MatSelectModule&#45;&gt;AccountSettingModule -->
<g id="edge6" class="edge">
<title>MatSelectModule&#45;&gt;AccountSettingModule</title>
<path fill="none" stroke="#000000" d="M1111,-122.2396C1111,-137.5706 1111,-157 1111,-157 1111,-157 1047.5,-157 1047.5,-157"/>
<polygon fill="#000000" stroke="#000000" points="1047.5,-153.5001 1037.5,-157 1047.5,-160.5001 1047.5,-153.5001"/>
</g>
<!-- MatFormFieldModule -->
<g id="node8" class="node">
<title>MatFormFieldModule</title>
<polygon fill="#8dd3c7" stroke="#000000" points="1034.712,-122 1031.712,-126 1010.712,-126 1007.712,-122 893.288,-122 893.288,-86 1034.712,-86 1034.712,-122"/>
<text text-anchor="middle" x="964" y="-99.8" font-family="Times,serif" font-size="14.00" fill="#000000">MatFormFieldModule</text>
</g>
<!-- MatFormFieldModule&#45;&gt;AccountSettingModule -->
<g id="edge7" class="edge">
<title>MatFormFieldModule&#45;&gt;AccountSettingModule</title>
<path fill="none" stroke="#000000" d="M964,-122.1061C964,-122.1061 964,-140.991 964,-140.991"/>
<polygon fill="#000000" stroke="#000000" points="960.5001,-140.9909 964,-150.991 967.5001,-140.991 960.5001,-140.9909"/>
</g>
<!-- MatIconModule -->
<g id="node9" class="node">
<title>MatIconModule</title>
<polygon fill="#8dd3c7" stroke="#000000" points="875.4748,-122 872.4748,-126 851.4748,-126 848.4748,-122 768.5252,-122 768.5252,-86 875.4748,-86 875.4748,-122"/>
<text text-anchor="middle" x="822" y="-99.8" font-family="Times,serif" font-size="14.00" fill="#000000">MatIconModule</text>
</g>
<!-- MatIconModule&#45;&gt;AccountSettingModule -->
<g id="edge8" class="edge">
<title>MatIconModule&#45;&gt;AccountSettingModule</title>
<path fill="none" stroke="#000000" d="M822,-122.2396C822,-137.5706 822,-157 822,-157 822,-157 880.5044,-157 880.5044,-157"/>
<polygon fill="#000000" stroke="#000000" points="880.5044,-160.5001 890.5044,-157 880.5043,-153.5001 880.5044,-160.5001"/>
</g>
<!-- MatGridListModule -->
<g id="node10" class="node">
<title>MatGridListModule</title>
<polygon fill="#8dd3c7" stroke="#000000" points="750.5366,-122 747.5366,-126 726.5366,-126 723.5366,-122 621.4634,-122 621.4634,-86 750.5366,-86 750.5366,-122"/>
<text text-anchor="middle" x="686" y="-99.8" font-family="Times,serif" font-size="14.00" fill="#000000">MatGridListModule</text>
</g>
<!-- MatGridListModule&#45;&gt;AccountSettingModule -->
<g id="edge9" class="edge">
<title>MatGridListModule&#45;&gt;AccountSettingModule</title>
<path fill="none" stroke="#000000" d="M686,-122.0336C686,-139.0597 686,-162 686,-162 686,-162 880.5951,-162 880.5951,-162"/>
<polygon fill="#000000" stroke="#000000" points="880.5952,-165.5001 890.5951,-162 880.5951,-158.5001 880.5952,-165.5001"/>
</g>
<!-- MatCardModule -->
<g id="node11" class="node">
<title>MatCardModule</title>
<polygon fill="#8dd3c7" stroke="#000000" points="603.8118,-122 600.8118,-126 579.8118,-126 576.8118,-122 494.1882,-122 494.1882,-86 603.8118,-86 603.8118,-122"/>
<text text-anchor="middle" x="549" y="-99.8" font-family="Times,serif" font-size="14.00" fill="#000000">MatCardModule</text>
</g>
<!-- MatCardModule&#45;&gt;AccountSettingModule -->
<g id="edge10" class="edge">
<title>MatCardModule&#45;&gt;AccountSettingModule</title>
<path fill="none" stroke="#000000" d="M549,-122.2222C549,-140.8285 549,-167 549,-167 549,-167 880.7616,-167 880.7616,-167"/>
<polygon fill="#000000" stroke="#000000" points="880.7617,-170.5001 890.7616,-167 880.7616,-163.5001 880.7617,-170.5001"/>
</g>
<!-- MatMenuModule -->
<g id="node12" class="node">
<title>MatMenuModule</title>
<polygon fill="#8dd3c7" stroke="#000000" points="476.2591,-122 473.2591,-126 452.2591,-126 449.2591,-122 361.7409,-122 361.7409,-86 476.2591,-86 476.2591,-122"/>
<text text-anchor="middle" x="419" y="-99.8" font-family="Times,serif" font-size="14.00" fill="#000000">MatMenuModule</text>
</g>
<!-- MatMenuModule&#45;&gt;AccountSettingModule -->
<g id="edge11" class="edge">
<title>MatMenuModule&#45;&gt;AccountSettingModule</title>
<path fill="none" stroke="#000000" d="M419,-122.2228C419,-142.3652 419,-172 419,-172 419,-172 880.7818,-172 880.7818,-172"/>
<polygon fill="#000000" stroke="#000000" points="880.7819,-175.5001 890.7818,-172 880.7818,-168.5001 880.7819,-175.5001"/>
</g>
<!-- InlineSVGModule -->
<g id="node13" class="node">
<title>InlineSVGModule</title>
<polygon fill="#8dd3c7" stroke="#000000" points="344.2022,-122 341.2022,-126 320.2022,-126 317.2022,-122 223.7978,-122 223.7978,-86 344.2022,-86 344.2022,-122"/>
<text text-anchor="middle" x="284" y="-99.8" font-family="Times,serif" font-size="14.00" fill="#000000">InlineSVGModule</text>
</g>
<!-- InlineSVGModule&#45;&gt;AccountSettingModule -->
<g id="edge12" class="edge">
<title>InlineSVGModule&#45;&gt;AccountSettingModule</title>
<path fill="none" stroke="#000000" d="M284,-122.0449C284,-143.6623 284,-177 284,-177 284,-177 880.582,-177 880.582,-177"/>
<polygon fill="#000000" stroke="#000000" points="880.582,-180.5001 890.582,-177 880.582,-173.5001 880.582,-180.5001"/>
</g>
<!-- RouterModule.forChild(args) -->
<g id="node14" class="node">
<title>RouterModule.forChild(args)</title>
<polygon fill="#8dd3c7" stroke="#000000" points="205.7323,-122 202.7323,-126 181.7323,-126 178.7323,-122 24.2677,-122 24.2677,-86 205.7323,-86 205.7323,-122"/>
<text text-anchor="middle" x="115" y="-99.8" font-family="Times,serif" font-size="14.00" fill="#000000">RouterModule.forChild(args)</text>
</g>
<!-- RouterModule.forChild(args)&#45;&gt;AccountSettingModule -->
<g id="edge13" class="edge">
<title>RouterModule.forChild(args)&#45;&gt;AccountSettingModule</title>
<path fill="none" stroke="#000000" d="M115,-122.0908C115,-145.1328 115,-182 115,-182 115,-182 880.5114,-182 880.5114,-182"/>
<polygon fill="#000000" stroke="#000000" points="880.5114,-185.5001 890.5114,-182 880.5113,-178.5001 880.5114,-185.5001"/>
</g>
</g>
</svg>
