<?xml version="1.0" encoding="UTF-8" standalone="no"?>
<!DOCTYPE svg PUBLIC "-//W3C//DTD SVG 1.1//EN"
 "http://www.w3.org/Graphics/SVG/1.1/DTD/svg11.dtd">
<!-- Generated by graphviz version 2.40.1 (20161225.0304)
 -->
<!-- Title: dependencies Pages: 1 -->
<svg width="2093pt" height="211pt"
 viewBox="0.00 0.00 2093.00 211.00" xmlns="http://www.w3.org/2000/svg" xmlns:xlink="http://www.w3.org/1999/xlink">
<g id="graph0" class="graph" transform="scale(1 1) rotate(0) translate(4 207)">
<title>dependencies</title>
<polygon fill="#ffffff" stroke="transparent" points="-4,4 -4,-207 2089,-207 2089,4 -4,4"/>
<text text-anchor="start" x="1021.5091" y="-42.4" font-family="sans-serif" font-weight="bold" font-size="14.00" fill="#000000">Legend</text>
<polygon fill="#ffffb3" stroke="transparent" points="808.5,-10 808.5,-30 828.5,-30 828.5,-10 808.5,-10"/>
<text text-anchor="start" x="832.129" y="-15.4" font-family="sans-serif" font-size="14.00" fill="#000000"> &#160;Declarations</text>
<polygon fill="#8dd3c7" stroke="transparent" points="921.5,-10 921.5,-30 941.5,-30 941.5,-10 921.5,-10"/>
<text text-anchor="start" x="945.2251" y="-15.4" font-family="sans-serif" font-size="14.00" fill="#000000"> &#160;Module</text>
<polygon fill="#80b1d3" stroke="transparent" points="1007.5,-10 1007.5,-30 1027.5,-30 1027.5,-10 1007.5,-10"/>
<text text-anchor="start" x="1031.2812" y="-15.4" font-family="sans-serif" font-size="14.00" fill="#000000"> &#160;Bootstrap</text>
<polygon fill="#fdb462" stroke="transparent" points="1104.5,-10 1104.5,-30 1124.5,-30 1124.5,-10 1104.5,-10"/>
<text text-anchor="start" x="1128.1732" y="-15.4" font-family="sans-serif" font-size="14.00" fill="#000000"> &#160;Providers</text>
<polygon fill="#fb8072" stroke="transparent" points="1200.5,-10 1200.5,-30 1220.5,-30 1220.5,-10 1200.5,-10"/>
<text text-anchor="start" x="1224.2258" y="-15.4" font-family="sans-serif" font-size="14.00" fill="#000000"> &#160;Exports</text>
<g id="clust1" class="cluster">
<title>cluster_ConnectionsModule</title>
<polygon fill="none" stroke="#000000" stroke-dasharray="1,5" points="8,-70 8,-195 2077,-195 2077,-70 8,-70"/>
</g>
<g id="clust2" class="cluster">
<title>cluster_ConnectionsModule_declarations</title>
<polygon fill="none" stroke="#000000" points="1939,-78 1939,-130 2069,-130 2069,-78 1939,-78"/>
</g>
<g id="clust4" class="cluster">
<title>cluster_ConnectionsModule_imports</title>
<polygon fill="none" stroke="#000000" points="16,-78 16,-130 1931,-130 1931,-78 16,-78"/>
</g>
<!-- ConnectionsPage -->
<g id="node1" class="node">
<title>ConnectionsPage</title>
<polygon fill="#ffffb3" stroke="#000000" points="2060.7036,-122 1947.2964,-122 1947.2964,-86 2060.7036,-86 2060.7036,-122"/>
<text text-anchor="middle" x="2004" y="-99.8" font-family="Times,serif" font-size="14.00" fill="#000000">ConnectionsPage</text>
</g>
<!-- ConnectionsModule -->
<g id="node2" class="node">
<title>ConnectionsModule</title>
<polygon fill="#8dd3c7" stroke="#000000" points="1149.5422,-187 1146.5422,-191 1125.5422,-191 1122.5422,-187 1020.4578,-187 1020.4578,-151 1149.5422,-151 1149.5422,-187"/>
<text text-anchor="middle" x="1085" y="-164.8" font-family="Times,serif" font-size="14.00" fill="#000000">ConnectionsModule</text>
</g>
<!-- ConnectionsPage&#45;&gt;ConnectionsModule -->
<g id="edge1" class="edge">
<title>ConnectionsPage&#45;&gt;ConnectionsModule</title>
<path fill="none" stroke="#000000" d="M2004,-122.3228C2004,-145.6602 2004,-183 2004,-183 2004,-183 1159.6223,-183 1159.6223,-183"/>
<polygon fill="#000000" stroke="#000000" points="1159.6223,-179.5001 1149.6223,-183 1159.6223,-186.5001 1159.6223,-179.5001"/>
</g>
<!-- CommonModule -->
<g id="node3" class="node">
<title>CommonModule</title>
<polygon fill="#8dd3c7" stroke="#000000" points="1922.6681,-122 1919.6681,-126 1898.6681,-126 1895.6681,-122 1811.3319,-122 1811.3319,-86 1922.6681,-86 1922.6681,-122"/>
<text text-anchor="middle" x="1867" y="-99.8" font-family="Times,serif" font-size="14.00" fill="#000000">CommonModule</text>
</g>
<!-- CommonModule&#45;&gt;ConnectionsModule -->
<g id="edge2" class="edge">
<title>CommonModule&#45;&gt;ConnectionsModule</title>
<path fill="none" stroke="#000000" d="M1867,-122.2921C1867,-144.2057 1867,-178 1867,-178 1867,-178 1159.6596,-178 1159.6596,-178"/>
<polygon fill="#000000" stroke="#000000" points="1159.6597,-174.5001 1149.6596,-178 1159.6596,-181.5001 1159.6597,-174.5001"/>
</g>
<!-- FormsModule -->
<g id="node4" class="node">
<title>FormsModule</title>
<polygon fill="#8dd3c7" stroke="#000000" points="1793.8288,-122 1790.8288,-126 1769.8288,-126 1766.8288,-122 1698.1712,-122 1698.1712,-86 1793.8288,-86 1793.8288,-122"/>
<text text-anchor="middle" x="1746" y="-99.8" font-family="Times,serif" font-size="14.00" fill="#000000">FormsModule</text>
</g>
<!-- FormsModule&#45;&gt;ConnectionsModule -->
<g id="edge3" class="edge">
<title>FormsModule&#45;&gt;ConnectionsModule</title>
<path fill="none" stroke="#000000" d="M1746,-122.0267C1746,-142.7672 1746,-174 1746,-174 1746,-174 1159.583,-174 1159.583,-174"/>
<polygon fill="#000000" stroke="#000000" points="1159.583,-170.5001 1149.583,-174 1159.5829,-177.5001 1159.583,-170.5001"/>
</g>
<!-- IonicModule -->
<g id="node5" class="node">
<title>IonicModule</title>
<polygon fill="#8dd3c7" stroke="#000000" points="1680.3162,-122 1677.3162,-126 1656.3162,-126 1653.3162,-122 1591.6838,-122 1591.6838,-86 1680.3162,-86 1680.3162,-122"/>
<text text-anchor="middle" x="1636" y="-99.8" font-family="Times,serif" font-size="14.00" fill="#000000">IonicModule</text>
</g>
<!-- IonicModule&#45;&gt;ConnectionsModule -->
<g id="edge4" class="edge">
<title>IonicModule&#45;&gt;ConnectionsModule</title>
<path fill="none" stroke="#000000" d="M1636,-122.1061C1636,-141.3391 1636,-169 1636,-169 1636,-169 1159.5558,-169 1159.5558,-169"/>
<polygon fill="#000000" stroke="#000000" points="1159.5558,-165.5001 1149.5558,-169 1159.5558,-172.5001 1159.5558,-165.5001"/>
</g>
<!-- MatPaginatorModule -->
<g id="node6" class="node">
<title>MatPaginatorModule</title>
<polygon fill="#8dd3c7" stroke="#000000" points="1573.7534,-122 1570.7534,-126 1549.7534,-126 1546.7534,-122 1438.2466,-122 1438.2466,-86 1573.7534,-86 1573.7534,-122"/>
<text text-anchor="middle" x="1506" y="-99.8" font-family="Times,serif" font-size="14.00" fill="#000000">MatPaginatorModule</text>
</g>
<!-- MatPaginatorModule&#45;&gt;ConnectionsModule -->
<g id="edge5" class="edge">
<title>MatPaginatorModule&#45;&gt;ConnectionsModule</title>
<path fill="none" stroke="#000000" d="M1506,-122.302C1506,-140.2699 1506,-165 1506,-165 1506,-165 1159.8586,-165 1159.8586,-165"/>
<polygon fill="#000000" stroke="#000000" points="1159.8587,-161.5001 1149.8586,-165 1159.8586,-168.5001 1159.8587,-161.5001"/>
</g>
<!-- MatInputModule -->
<g id="node7" class="node">
<title>MatInputModule</title>
<polygon fill="#8dd3c7" stroke="#000000" points="1419.6513,-122 1416.6513,-126 1395.6513,-126 1392.6513,-122 1308.3487,-122 1308.3487,-86 1419.6513,-86 1419.6513,-122"/>
<text text-anchor="middle" x="1364" y="-99.8" font-family="Times,serif" font-size="14.00" fill="#000000">MatInputModule</text>
</g>
<!-- MatInputModule&#45;&gt;ConnectionsModule -->
<g id="edge6" class="edge">
<title>MatInputModule&#45;&gt;ConnectionsModule</title>
<path fill="none" stroke="#000000" d="M1364,-122.027C1364,-138.3976 1364,-160 1364,-160 1364,-160 1159.7095,-160 1159.7095,-160"/>
<polygon fill="#000000" stroke="#000000" points="1159.7095,-156.5001 1149.7095,-160 1159.7094,-163.5001 1159.7095,-156.5001"/>
</g>
<!-- MatSelectModule -->
<g id="node8" class="node">
<title>MatSelectModule</title>
<polygon fill="#8dd3c7" stroke="#000000" points="1290.3076,-122 1287.3076,-126 1266.3076,-126 1263.3076,-122 1173.6924,-122 1173.6924,-86 1290.3076,-86 1290.3076,-122"/>
<text text-anchor="middle" x="1232" y="-99.8" font-family="Times,serif" font-size="14.00" fill="#000000">MatSelectModule</text>
</g>
<!-- MatSelectModule&#45;&gt;ConnectionsModule -->
<g id="edge7" class="edge">
<title>MatSelectModule&#45;&gt;ConnectionsModule</title>
<path fill="none" stroke="#000000" d="M1232,-122.1871C1232,-137.1824 1232,-156 1232,-156 1232,-156 1159.9042,-156 1159.9042,-156"/>
<polygon fill="#000000" stroke="#000000" points="1159.9043,-152.5001 1149.9042,-156 1159.9042,-159.5001 1159.9043,-152.5001"/>
</g>
<!-- MatFormFieldModule -->
<g id="node9" class="node">
<title>MatFormFieldModule</title>
<polygon fill="#8dd3c7" stroke="#000000" points="1155.712,-122 1152.712,-126 1131.712,-126 1128.712,-122 1014.288,-122 1014.288,-86 1155.712,-86 1155.712,-122"/>
<text text-anchor="middle" x="1085" y="-99.8" font-family="Times,serif" font-size="14.00" fill="#000000">MatFormFieldModule</text>
</g>
<!-- MatFormFieldModule&#45;&gt;ConnectionsModule -->
<g id="edge8" class="edge">
<title>MatFormFieldModule&#45;&gt;ConnectionsModule</title>
<path fill="none" stroke="#000000" d="M1085,-122.1061C1085,-122.1061 1085,-140.991 1085,-140.991"/>
<polygon fill="#000000" stroke="#000000" points="1081.5001,-140.9909 1085,-150.991 1088.5001,-140.991 1081.5001,-140.9909"/>
</g>
<!-- MatIconModule -->
<g id="node10" class="node">
<title>MatIconModule</title>
<polygon fill="#8dd3c7" stroke="#000000" points="996.4748,-122 993.4748,-126 972.4748,-126 969.4748,-122 889.5252,-122 889.5252,-86 996.4748,-86 996.4748,-122"/>
<text text-anchor="middle" x="943" y="-99.8" font-family="Times,serif" font-size="14.00" fill="#000000">MatIconModule</text>
</g>
<!-- MatIconModule&#45;&gt;ConnectionsModule -->
<g id="edge9" class="edge">
<title>MatIconModule&#45;&gt;ConnectionsModule</title>
<path fill="none" stroke="#000000" d="M943,-122.1871C943,-137.1824 943,-156 943,-156 943,-156 1010.2331,-156 1010.2331,-156"/>
<polygon fill="#000000" stroke="#000000" points="1010.2331,-159.5001 1020.2331,-156 1010.2331,-152.5001 1010.2331,-159.5001"/>
</g>
<!-- MatGridListModule -->
<g id="node11" class="node">
<title>MatGridListModule</title>
<polygon fill="#8dd3c7" stroke="#000000" points="871.5366,-122 868.5366,-126 847.5366,-126 844.5366,-122 742.4634,-122 742.4634,-86 871.5366,-86 871.5366,-122"/>
<text text-anchor="middle" x="807" y="-99.8" font-family="Times,serif" font-size="14.00" fill="#000000">MatGridListModule</text>
</g>
<!-- MatGridListModule&#45;&gt;ConnectionsModule -->
<g id="edge10" class="edge">
<title>MatGridListModule&#45;&gt;ConnectionsModule</title>
<path fill="none" stroke="#000000" d="M807,-122.027C807,-138.3976 807,-160 807,-160 807,-160 1010.1722,-160 1010.1722,-160"/>
<polygon fill="#000000" stroke="#000000" points="1010.1722,-163.5001 1020.1722,-160 1010.1722,-156.5001 1010.1722,-163.5001"/>
</g>
<!-- MatCardModule -->
<g id="node12" class="node">
<title>MatCardModule</title>
<polygon fill="#8dd3c7" stroke="#000000" points="724.8118,-122 721.8118,-126 700.8118,-126 697.8118,-122 615.1882,-122 615.1882,-86 724.8118,-86 724.8118,-122"/>
<text text-anchor="middle" x="670" y="-99.8" font-family="Times,serif" font-size="14.00" fill="#000000">MatCardModule</text>
</g>
<!-- MatCardModule&#45;&gt;ConnectionsModule -->
<g id="edge11" class="edge">
<title>MatCardModule&#45;&gt;ConnectionsModule</title>
<path fill="none" stroke="#000000" d="M670,-122.302C670,-140.2699 670,-165 670,-165 670,-165 1010.1563,-165 1010.1563,-165"/>
<polygon fill="#000000" stroke="#000000" points="1010.1563,-168.5001 1020.1563,-165 1010.1562,-161.5001 1010.1563,-168.5001"/>
</g>
<!-- MatMenuModule -->
<g id="node13" class="node">
<title>MatMenuModule</title>
<polygon fill="#8dd3c7" stroke="#000000" points="597.2591,-122 594.2591,-126 573.2591,-126 570.2591,-122 482.7409,-122 482.7409,-86 597.2591,-86 597.2591,-122"/>
<text text-anchor="middle" x="540" y="-99.8" font-family="Times,serif" font-size="14.00" fill="#000000">MatMenuModule</text>
</g>
<!-- MatMenuModule&#45;&gt;ConnectionsModule -->
<g id="edge12" class="edge">
<title>MatMenuModule&#45;&gt;ConnectionsModule</title>
<path fill="none" stroke="#000000" d="M540,-122.1061C540,-141.3391 540,-169 540,-169 540,-169 1010.3412,-169 1010.3412,-169"/>
<polygon fill="#000000" stroke="#000000" points="1010.3412,-172.5001 1020.3412,-169 1010.3411,-165.5001 1010.3412,-172.5001"/>
</g>
<!-- InlineSVGModule -->
<g id="node14" class="node">
<title>InlineSVGModule</title>
<polygon fill="#8dd3c7" stroke="#000000" points="465.2022,-122 462.2022,-126 441.2022,-126 438.2022,-122 344.7978,-122 344.7978,-86 465.2022,-86 465.2022,-122"/>
<text text-anchor="middle" x="405" y="-99.8" font-family="Times,serif" font-size="14.00" fill="#000000">InlineSVGModule</text>
</g>
<!-- InlineSVGModule&#45;&gt;ConnectionsModule -->
<g id="edge13" class="edge">
<title>InlineSVGModule&#45;&gt;ConnectionsModule</title>
<path fill="none" stroke="#000000" d="M405,-122.0267C405,-142.7672 405,-174 405,-174 405,-174 1010.4142,-174 1010.4142,-174"/>
<polygon fill="#000000" stroke="#000000" points="1010.4142,-177.5001 1020.4142,-174 1010.4142,-170.5001 1010.4142,-177.5001"/>
</g>
<!-- SpinnerModule -->
<g id="node15" class="node">
<title>SpinnerModule</title>
<polygon fill="#8dd3c7" stroke="#000000" points="326.5982,-122 323.5982,-126 302.5982,-126 299.5982,-122 223.4018,-122 223.4018,-86 326.5982,-86 326.5982,-122"/>
<text text-anchor="middle" x="275" y="-99.8" font-family="Times,serif" font-size="14.00" fill="#000000">SpinnerModule</text>
</g>
<!-- SpinnerModule&#45;&gt;ConnectionsModule -->
<g id="edge14" class="edge">
<title>SpinnerModule&#45;&gt;ConnectionsModule</title>
<path fill="none" stroke="#000000" d="M275,-122.2921C275,-144.2057 275,-178 275,-178 275,-178 1010.4239,-178 1010.4239,-178"/>
<polygon fill="#000000" stroke="#000000" points="1010.424,-181.5001 1020.4239,-178 1010.4239,-174.5001 1010.424,-181.5001"/>
</g>
<!-- RouterModule.forChild(args) -->
<g id="node16" class="node">
<title>RouterModule.forChild(args)</title>
<polygon fill="#8dd3c7" stroke="#000000" points="205.7323,-122 202.7323,-126 181.7323,-126 178.7323,-122 24.2677,-122 24.2677,-86 205.7323,-86 205.7323,-122"/>
<text text-anchor="middle" x="115" y="-99.8" font-family="Times,serif" font-size="14.00" fill="#000000">RouterModule.forChild(args)</text>
</g>
<!-- RouterModule.forChild(args)&#45;&gt;ConnectionsModule -->
<g id="edge15" class="edge">
<title>RouterModule.forChild(args)&#45;&gt;ConnectionsModule</title>
<path fill="none" stroke="#000000" d="M115,-122.3228C115,-145.6602 115,-183 115,-183 115,-183 1010.2274,-183 1010.2274,-183"/>
<polygon fill="#000000" stroke="#000000" points="1010.2274,-186.5001 1020.2274,-183 1010.2273,-179.5001 1010.2274,-186.5001"/>
</g>
</g>
</svg>
