<svg xmlns="http://www.w3.org/2000/svg" width="9.56" height="9.56" viewBox="0 0 9.56 9.56">
    <defs>
        <style>
            .cls-1{fill:#f0f0f7}
        </style>
    </defs>
    <g id="Icon-User">
        <path id="Fill-57" d="M-265.12-260.34a4.78 4.78 0 0 1-4.78-4.78 4.78 4.78 0 0 1 4.78-4.78 4.78 4.78 0 0 1 4.78 4.78 4.78 4.78 0 0 1-4.78 4.78zm0-9.04a4.276 4.276 0 0 0-4.26 4.26 4.276 4.276 0 0 0 4.26 4.26 4.276 4.276 0 0 0 4.26-4.26 4.276 4.276 0 0 0-4.26-4.26z" class="cls-1" transform="translate(269.9 269.9)"/>
        <path id="Fill-58" d="M-261.92-257.18l-.48-.22c.14-.34.58-.52 1.08-.74.48-.22 1.08-.48 1.08-.8v-.44a1.348 1.348 0 0 1-.5-.92 1.08 1.08 0 0 1-.36-.72.894.894 0 0 1 .14-.46 6.224 6.224 0 0 1-.12-1 1.773 1.773 0 0 1 1.96-1.82 1.4 1.4 0 0 1 .98.34 1.447 1.447 0 0 1 .98 1.48 3.719 3.719 0 0 1-.14 1.06.788.788 0 0 1 .12.4.856.856 0 0 1-.36.74 1.359 1.359 0 0 1-.46.9v.44c0 .28.5.46.96.64.54.2 1.1.4 1.28.86l-.5.18c-.08-.24-.56-.4-.96-.56-.62-.22-1.32-.48-1.32-1.12v-.72l.12-.08a.83.83 0 0 0 .36-.7v-.18l.16-.06a.385.385 0 0 0 .18-.34.3.3 0 0 0-.08-.18l-.1-.12.04-.14a3.779 3.779 0 0 0 .14-1.04c0-.5-.28-.96-.58-.96h-.16l-.08-.14a.8.8 0 0 0-.62-.2 1.261 1.261 0 0 0-1.44 1.3 5.958 5.958 0 0 0 .14 1l.04.14-.1.1a.382.382 0 0 0-.08.2c0 .14.18.32.26.4l.1.08v.14a.866.866 0 0 0 .38.68l.12.08v.72c0 .66-.74 1-1.4 1.28a3.093 3.093 0 0 0-.78.5" class="cls-1" transform="translate(263.9 265.42)"/>
    </g>
</svg>
