<?xml version="1.0" encoding="UTF-8" standalone="no"?>
<!DOCTYPE svg PUBLIC "-//W3C//DTD SVG 1.1//EN"
 "http://www.w3.org/Graphics/SVG/1.1/DTD/svg11.dtd">
<!-- Generated by graphviz version 2.40.1 (20161225.0304)
 -->
<!-- Title: dependencies Pages: 1 -->
<svg width="1154pt" height="211pt"
 viewBox="0.00 0.00 1154.00 211.00" xmlns="http://www.w3.org/2000/svg" xmlns:xlink="http://www.w3.org/1999/xlink">
<g id="graph0" class="graph" transform="scale(1 1) rotate(0) translate(4 207)">
<title>dependencies</title>
<polygon fill="#ffffff" stroke="transparent" points="-4,4 -4,-207 1150,-207 1150,4 -4,4"/>
<text text-anchor="start" x="552.0091" y="-42.4" font-family="sans-serif" font-weight="bold" font-size="14.00" fill="#000000">Legend</text>
<polygon fill="#ffffb3" stroke="transparent" points="339,-10 339,-30 359,-30 359,-10 339,-10"/>
<text text-anchor="start" x="362.629" y="-15.4" font-family="sans-serif" font-size="14.00" fill="#000000"> &#160;Declarations</text>
<polygon fill="#8dd3c7" stroke="transparent" points="452,-10 452,-30 472,-30 472,-10 452,-10"/>
<text text-anchor="start" x="475.7251" y="-15.4" font-family="sans-serif" font-size="14.00" fill="#000000"> &#160;Module</text>
<polygon fill="#80b1d3" stroke="transparent" points="538,-10 538,-30 558,-30 558,-10 538,-10"/>
<text text-anchor="start" x="561.7812" y="-15.4" font-family="sans-serif" font-size="14.00" fill="#000000"> &#160;Bootstrap</text>
<polygon fill="#fdb462" stroke="transparent" points="635,-10 635,-30 655,-30 655,-10 635,-10"/>
<text text-anchor="start" x="658.6732" y="-15.4" font-family="sans-serif" font-size="14.00" fill="#000000"> &#160;Providers</text>
<polygon fill="#fb8072" stroke="transparent" points="731,-10 731,-30 751,-30 751,-10 731,-10"/>
<text text-anchor="start" x="754.7258" y="-15.4" font-family="sans-serif" font-size="14.00" fill="#000000"> &#160;Exports</text>
<g id="clust1" class="cluster">
<title>cluster_EmploymentDetailsModule</title>
<polygon fill="none" stroke="#000000" stroke-dasharray="1,5" points="8,-70 8,-195 1138,-195 1138,-70 8,-70"/>
</g>
<g id="clust2" class="cluster">
<title>cluster_EmploymentDetailsModule_declarations</title>
<polygon fill="none" stroke="#000000" points="958,-78 958,-130 1130,-130 1130,-78 958,-78"/>
</g>
<g id="clust4" class="cluster">
<title>cluster_EmploymentDetailsModule_imports</title>
<polygon fill="none" stroke="#000000" points="16,-78 16,-130 950,-130 950,-78 16,-78"/>
</g>
<!-- EmploymentDetailsPage -->
<g id="node1" class="node">
<title>EmploymentDetailsPage</title>
<polygon fill="#ffffb3" stroke="#000000" points="1121.6937,-122 966.3063,-122 966.3063,-86 1121.6937,-86 1121.6937,-122"/>
<text text-anchor="middle" x="1044" y="-99.8" font-family="Times,serif" font-size="14.00" fill="#000000">EmploymentDetailsPage</text>
</g>
<!-- EmploymentDetailsModule -->
<g id="node2" class="node">
<title>EmploymentDetailsModule</title>
<polygon fill="#8dd3c7" stroke="#000000" points="681.5322,-187 678.5322,-191 657.5322,-191 654.5322,-187 510.4678,-187 510.4678,-151 681.5322,-151 681.5322,-187"/>
<text text-anchor="middle" x="596" y="-164.8" font-family="Times,serif" font-size="14.00" fill="#000000">EmploymentDetailsModule</text>
</g>
<!-- EmploymentDetailsPage&#45;&gt;EmploymentDetailsModule -->
<g id="edge1" class="edge">
<title>EmploymentDetailsPage&#45;&gt;EmploymentDetailsModule</title>
<path fill="none" stroke="#000000" d="M1044,-122.2921C1044,-144.2057 1044,-178 1044,-178 1044,-178 691.5842,-178 691.5842,-178"/>
<polygon fill="#000000" stroke="#000000" points="691.5842,-174.5001 681.5842,-178 691.5842,-181.5001 691.5842,-174.5001"/>
</g>
<!-- CommonModule -->
<g id="node3" class="node">
<title>CommonModule</title>
<polygon fill="#8dd3c7" stroke="#000000" points="941.6681,-122 938.6681,-126 917.6681,-126 914.6681,-122 830.3319,-122 830.3319,-86 941.6681,-86 941.6681,-122"/>
<text text-anchor="middle" x="886" y="-99.8" font-family="Times,serif" font-size="14.00" fill="#000000">CommonModule</text>
</g>
<!-- CommonModule&#45;&gt;EmploymentDetailsModule -->
<g id="edge2" class="edge">
<title>CommonModule&#45;&gt;EmploymentDetailsModule</title>
<path fill="none" stroke="#000000" d="M886,-122.1061C886,-141.3391 886,-169 886,-169 886,-169 691.8325,-169 691.8325,-169"/>
<polygon fill="#000000" stroke="#000000" points="691.8325,-165.5001 681.8325,-169 691.8325,-172.5001 691.8325,-165.5001"/>
</g>
<!-- FormsModule -->
<g id="node4" class="node">
<title>FormsModule</title>
<polygon fill="#8dd3c7" stroke="#000000" points="812.8288,-122 809.8288,-126 788.8288,-126 785.8288,-122 717.1712,-122 717.1712,-86 812.8288,-86 812.8288,-122"/>
<text text-anchor="middle" x="765" y="-99.8" font-family="Times,serif" font-size="14.00" fill="#000000">FormsModule</text>
</g>
<!-- FormsModule&#45;&gt;EmploymentDetailsModule -->
<g id="edge3" class="edge">
<title>FormsModule&#45;&gt;EmploymentDetailsModule</title>
<path fill="none" stroke="#000000" d="M765,-122.027C765,-138.3976 765,-160 765,-160 765,-160 691.9853,-160 691.9853,-160"/>
<polygon fill="#000000" stroke="#000000" points="691.9853,-156.5001 681.9853,-160 691.9852,-163.5001 691.9853,-156.5001"/>
</g>
<!-- IonicModule -->
<g id="node5" class="node">
<title>IonicModule</title>
<polygon fill="#8dd3c7" stroke="#000000" points="699.3162,-122 696.3162,-126 675.3162,-126 672.3162,-122 610.6838,-122 610.6838,-86 699.3162,-86 699.3162,-122"/>
<text text-anchor="middle" x="655" y="-99.8" font-family="Times,serif" font-size="14.00" fill="#000000">IonicModule</text>
</g>
<!-- IonicModule&#45;&gt;EmploymentDetailsModule -->
<g id="edge4" class="edge">
<title>IonicModule&#45;&gt;EmploymentDetailsModule</title>
<path fill="none" stroke="#000000" d="M646.304,-122.1061C646.304,-122.1061 646.304,-140.991 646.304,-140.991"/>
<polygon fill="#000000" stroke="#000000" points="642.8041,-140.9909 646.304,-150.991 649.8041,-140.991 642.8041,-140.9909"/>
</g>
<!-- MatCardModule -->
<g id="node6" class="node">
<title>MatCardModule</title>
<polygon fill="#8dd3c7" stroke="#000000" points="592.8118,-122 589.8118,-126 568.8118,-126 565.8118,-122 483.1882,-122 483.1882,-86 592.8118,-86 592.8118,-122"/>
<text text-anchor="middle" x="538" y="-99.8" font-family="Times,serif" font-size="14.00" fill="#000000">MatCardModule</text>
</g>
<!-- MatCardModule&#45;&gt;EmploymentDetailsModule -->
<g id="edge5" class="edge">
<title>MatCardModule&#45;&gt;EmploymentDetailsModule</title>
<path fill="none" stroke="#000000" d="M551.445,-122.1061C551.445,-122.1061 551.445,-140.991 551.445,-140.991"/>
<polygon fill="#000000" stroke="#000000" points="547.945,-140.9909 551.445,-150.991 554.945,-140.991 547.945,-140.9909"/>
</g>
<!-- InlineSVGModule -->
<g id="node7" class="node">
<title>InlineSVGModule</title>
<polygon fill="#8dd3c7" stroke="#000000" points="465.2022,-122 462.2022,-126 441.2022,-126 438.2022,-122 344.7978,-122 344.7978,-86 465.2022,-86 465.2022,-122"/>
<text text-anchor="middle" x="405" y="-99.8" font-family="Times,serif" font-size="14.00" fill="#000000">InlineSVGModule</text>
</g>
<!-- InlineSVGModule&#45;&gt;EmploymentDetailsModule -->
<g id="edge6" class="edge">
<title>InlineSVGModule&#45;&gt;EmploymentDetailsModule</title>
<path fill="none" stroke="#000000" d="M405,-122.027C405,-138.3976 405,-160 405,-160 405,-160 500.2772,-160 500.2772,-160"/>
<polygon fill="#000000" stroke="#000000" points="500.2773,-163.5001 510.2772,-160 500.2772,-156.5001 500.2773,-163.5001"/>
</g>
<!-- SpinnerModule -->
<g id="node8" class="node">
<title>SpinnerModule</title>
<polygon fill="#8dd3c7" stroke="#000000" points="326.5982,-122 323.5982,-126 302.5982,-126 299.5982,-122 223.4018,-122 223.4018,-86 326.5982,-86 326.5982,-122"/>
<text text-anchor="middle" x="275" y="-99.8" font-family="Times,serif" font-size="14.00" fill="#000000">SpinnerModule</text>
</g>
<!-- SpinnerModule&#45;&gt;EmploymentDetailsModule -->
<g id="edge7" class="edge">
<title>SpinnerModule&#45;&gt;EmploymentDetailsModule</title>
<path fill="none" stroke="#000000" d="M275,-122.1061C275,-141.3391 275,-169 275,-169 275,-169 500.3996,-169 500.3996,-169"/>
<polygon fill="#000000" stroke="#000000" points="500.3996,-172.5001 510.3996,-169 500.3995,-165.5001 500.3996,-172.5001"/>
</g>
<!-- RouterModule.forChild(args) -->
<g id="node9" class="node">
<title>RouterModule.forChild(args)</title>
<polygon fill="#8dd3c7" stroke="#000000" points="205.7323,-122 202.7323,-126 181.7323,-126 178.7323,-122 24.2677,-122 24.2677,-86 205.7323,-86 205.7323,-122"/>
<text text-anchor="middle" x="115" y="-99.8" font-family="Times,serif" font-size="14.00" fill="#000000">RouterModule.forChild(args)</text>
</g>
<!-- RouterModule.forChild(args)&#45;&gt;EmploymentDetailsModule -->
<g id="edge8" class="edge">
<title>RouterModule.forChild(args)&#45;&gt;EmploymentDetailsModule</title>
<path fill="none" stroke="#000000" d="M115,-122.2921C115,-144.2057 115,-178 115,-178 115,-178 500.2841,-178 500.2841,-178"/>
<polygon fill="#000000" stroke="#000000" points="500.2842,-181.5001 510.2841,-178 500.2841,-174.5001 500.2842,-181.5001"/>
</g>
</g>
</svg>
