<?xml version="1.0" encoding="UTF-8" standalone="no"?>
<!DOCTYPE svg PUBLIC "-//W3C//DTD SVG 1.1//EN"
 "http://www.w3.org/Graphics/SVG/1.1/DTD/svg11.dtd">
<!-- Generated by graphviz version 2.40.1 (20161225.0304)
 -->
<!-- Title: dependencies Pages: 1 -->
<svg width="2623pt" height="284pt"
 viewBox="0.00 0.00 2623.00 284.00" xmlns="http://www.w3.org/2000/svg" xmlns:xlink="http://www.w3.org/1999/xlink">
<g id="graph0" class="graph" transform="scale(1 1) rotate(0) translate(4 280)">
<title>dependencies</title>
<polygon fill="#ffffff" stroke="transparent" points="-4,4 -4,-280 2619,-280 2619,4 -4,4"/>
<text text-anchor="start" x="1286.5091" y="-42.4" font-family="sans-serif" font-weight="bold" font-size="14.00" fill="#000000">Legend</text>
<polygon fill="#ffffb3" stroke="transparent" points="1073.5,-10 1073.5,-30 1093.5,-30 1093.5,-10 1073.5,-10"/>
<text text-anchor="start" x="1097.129" y="-15.4" font-family="sans-serif" font-size="14.00" fill="#000000"> &#160;Declarations</text>
<polygon fill="#8dd3c7" stroke="transparent" points="1186.5,-10 1186.5,-30 1206.5,-30 1206.5,-10 1186.5,-10"/>
<text text-anchor="start" x="1210.2251" y="-15.4" font-family="sans-serif" font-size="14.00" fill="#000000"> &#160;Module</text>
<polygon fill="#80b1d3" stroke="transparent" points="1272.5,-10 1272.5,-30 1292.5,-30 1292.5,-10 1272.5,-10"/>
<text text-anchor="start" x="1296.2812" y="-15.4" font-family="sans-serif" font-size="14.00" fill="#000000"> &#160;Bootstrap</text>
<polygon fill="#fdb462" stroke="transparent" points="1369.5,-10 1369.5,-30 1389.5,-30 1389.5,-10 1369.5,-10"/>
<text text-anchor="start" x="1393.1732" y="-15.4" font-family="sans-serif" font-size="14.00" fill="#000000"> &#160;Providers</text>
<polygon fill="#fb8072" stroke="transparent" points="1465.5,-10 1465.5,-30 1485.5,-30 1485.5,-10 1465.5,-10"/>
<text text-anchor="start" x="1489.2258" y="-15.4" font-family="sans-serif" font-size="14.00" fill="#000000"> &#160;Exports</text>
<g id="clust1" class="cluster">
<title>cluster_AppModule</title>
<polygon fill="none" stroke="#000000" stroke-dasharray="1,5" points="8,-70 8,-268 2607,-268 2607,-70 8,-70"/>
</g>
<g id="clust2" class="cluster">
<title>cluster_AppModule_declarations</title>
<polygon fill="none" stroke="#000000" points="2294,-78 2294,-130 2599,-130 2599,-78 2294,-78"/>
</g>
<g id="clust5" class="cluster">
<title>cluster_AppModule_imports</title>
<polygon fill="none" stroke="#000000" points="923,-78 923,-130 2286,-130 2286,-78 923,-78"/>
</g>
<g id="clust7" class="cluster">
<title>cluster_AppModule_bootstrap</title>
<polygon fill="none" stroke="#000000" points="1442,-208 1442,-260 1566,-260 1566,-208 1442,-208"/>
</g>
<g id="clust8" class="cluster">
<title>cluster_AppModule_providers</title>
<polygon fill="none" stroke="#000000" points="16,-78 16,-130 915,-130 915,-78 16,-78"/>
</g>
<!-- AppComponent -->
<g id="node1" class="node">
<title>AppComponent</title>
<polygon fill="#ffffb3" stroke="#000000" points="2590.9399,-122 2485.0601,-122 2485.0601,-86 2590.9399,-86 2590.9399,-122"/>
<text text-anchor="middle" x="2538" y="-99.8" font-family="Times,serif" font-size="14.00" fill="#000000">AppComponent</text>
</g>
<!-- AppModule -->
<g id="node3" class="node">
<title>AppModule</title>
<polygon fill="#8dd3c7" stroke="#000000" points="1545.6571,-187 1542.6571,-191 1521.6571,-191 1518.6571,-187 1462.3429,-187 1462.3429,-151 1545.6571,-151 1545.6571,-187"/>
<text text-anchor="middle" x="1504" y="-164.8" font-family="Times,serif" font-size="14.00" fill="#000000">AppModule</text>
</g>
<!-- AppComponent&#45;&gt;AppModule -->
<g id="edge1" class="edge">
<title>AppComponent&#45;&gt;AppModule</title>
<path fill="none" stroke="#000000" d="M2538,-122.3228C2538,-145.6602 2538,-183 2538,-183 2538,-183 1555.8147,-183 1555.8147,-183"/>
<polygon fill="#000000" stroke="#000000" points="1555.8147,-179.5001 1545.8147,-183 1555.8146,-186.5001 1555.8147,-179.5001"/>
</g>
<!-- PageNotFoundComponent -->
<g id="node2" class="node">
<title>PageNotFoundComponent</title>
<polygon fill="#ffffb3" stroke="#000000" points="2467.8243,-122 2302.1757,-122 2302.1757,-86 2467.8243,-86 2467.8243,-122"/>
<text text-anchor="middle" x="2385" y="-99.8" font-family="Times,serif" font-size="14.00" fill="#000000">PageNotFoundComponent</text>
</g>
<!-- PageNotFoundComponent&#45;&gt;AppModule -->
<g id="edge2" class="edge">
<title>PageNotFoundComponent&#45;&gt;AppModule</title>
<path fill="none" stroke="#000000" d="M2385,-122.2921C2385,-144.2057 2385,-178 2385,-178 2385,-178 1555.8998,-178 1555.8998,-178"/>
<polygon fill="#000000" stroke="#000000" points="1555.8998,-174.5001 1545.8998,-178 1555.8997,-181.5001 1555.8998,-174.5001"/>
</g>
<!-- AppComponent  -->
<g id="node13" class="node">
<title>AppComponent </title>
<polygon fill="#80b1d3" stroke="#000000" points="1558.439,-252 1449.561,-252 1449.561,-216 1558.439,-216 1558.439,-252"/>
<text text-anchor="middle" x="1504" y="-229.8" font-family="Times,serif" font-size="14.00" fill="#000000">AppComponent </text>
</g>
<!-- AppModule&#45;&gt;AppComponent  -->
<g id="edge12" class="edge">
<title>AppModule&#45;&gt;AppComponent </title>
<path fill="none" stroke="#000000" stroke-dasharray="1,5" d="M1504,-187.1061C1504,-187.1061 1504,-205.991 1504,-205.991"/>
<polygon fill="#000000" stroke="#000000" points="1500.5001,-205.9909 1504,-215.991 1507.5001,-205.991 1500.5001,-205.9909"/>
</g>
<!-- BrowserModule -->
<g id="node4" class="node">
<title>BrowserModule</title>
<polygon fill="#8dd3c7" stroke="#000000" points="2278.4734,-122 2275.4734,-126 2254.4734,-126 2251.4734,-122 2171.5266,-122 2171.5266,-86 2278.4734,-86 2278.4734,-122"/>
<text text-anchor="middle" x="2225" y="-99.8" font-family="Times,serif" font-size="14.00" fill="#000000">BrowserModule</text>
</g>
<!-- BrowserModule&#45;&gt;AppModule -->
<g id="edge3" class="edge">
<title>BrowserModule&#45;&gt;AppModule</title>
<path fill="none" stroke="#000000" d="M2225,-122.0267C2225,-142.7672 2225,-174 2225,-174 2225,-174 1555.8804,-174 1555.8804,-174"/>
<polygon fill="#000000" stroke="#000000" points="1555.8805,-170.5001 1545.8804,-174 1555.8804,-177.5001 1555.8805,-170.5001"/>
</g>
<!-- BrowserAnimationsModule -->
<g id="node5" class="node">
<title>BrowserAnimationsModule</title>
<polygon fill="#8dd3c7" stroke="#000000" points="2153.3019,-122 2150.3019,-126 2129.3019,-126 2126.3019,-122 1980.6981,-122 1980.6981,-86 2153.3019,-86 2153.3019,-122"/>
<text text-anchor="middle" x="2067" y="-99.8" font-family="Times,serif" font-size="14.00" fill="#000000">BrowserAnimationsModule</text>
</g>
<!-- BrowserAnimationsModule&#45;&gt;AppModule -->
<g id="edge4" class="edge">
<title>BrowserAnimationsModule&#45;&gt;AppModule</title>
<path fill="none" stroke="#000000" d="M2067,-122.1061C2067,-141.3391 2067,-169 2067,-169 2067,-169 1555.8565,-169 1555.8565,-169"/>
<polygon fill="#000000" stroke="#000000" points="1555.8566,-165.5001 1545.8565,-169 1555.8565,-172.5001 1555.8566,-165.5001"/>
</g>
<!-- HttpModule -->
<g id="node6" class="node">
<title>HttpModule</title>
<polygon fill="#8dd3c7" stroke="#000000" points="1963.4387,-122 1960.4387,-126 1939.4387,-126 1936.4387,-122 1878.5613,-122 1878.5613,-86 1963.4387,-86 1963.4387,-122"/>
<text text-anchor="middle" x="1921" y="-99.8" font-family="Times,serif" font-size="14.00" fill="#000000">HttpModule</text>
</g>
<!-- HttpModule&#45;&gt;AppModule -->
<g id="edge5" class="edge">
<title>HttpModule&#45;&gt;AppModule</title>
<path fill="none" stroke="#000000" d="M1921,-122.302C1921,-140.2699 1921,-165 1921,-165 1921,-165 1555.8928,-165 1555.8928,-165"/>
<polygon fill="#000000" stroke="#000000" points="1555.8929,-161.5001 1545.8928,-165 1555.8928,-168.5001 1555.8929,-161.5001"/>
</g>
<!-- IonicModule.forRoot() -->
<g id="node7" class="node">
<title>IonicModule.forRoot()</title>
<polygon fill="#8dd3c7" stroke="#000000" points="1860.1855,-122 1857.1855,-126 1836.1855,-126 1833.1855,-122 1715.8145,-122 1715.8145,-86 1860.1855,-86 1860.1855,-122"/>
<text text-anchor="middle" x="1788" y="-99.8" font-family="Times,serif" font-size="14.00" fill="#000000">IonicModule.forRoot()</text>
</g>
<!-- IonicModule.forRoot()&#45;&gt;AppModule -->
<g id="edge6" class="edge">
<title>IonicModule.forRoot()&#45;&gt;AppModule</title>
<path fill="none" stroke="#000000" d="M1788,-122.027C1788,-138.3976 1788,-160 1788,-160 1788,-160 1555.9052,-160 1555.9052,-160"/>
<polygon fill="#000000" stroke="#000000" points="1555.9052,-156.5001 1545.9052,-160 1555.9051,-163.5001 1555.9052,-156.5001"/>
</g>
<!-- AppRoutingModule -->
<g id="node8" class="node">
<title>AppRoutingModule</title>
<polygon fill="#8dd3c7" stroke="#000000" points="1697.2744,-122 1694.2744,-126 1673.2744,-126 1670.2744,-122 1568.7256,-122 1568.7256,-86 1697.2744,-86 1697.2744,-122"/>
<text text-anchor="middle" x="1633" y="-99.8" font-family="Times,serif" font-size="14.00" fill="#000000">AppRoutingModule</text>
</g>
<!-- AppRoutingModule&#45;&gt;AppModule -->
<g id="edge7" class="edge">
<title>AppRoutingModule&#45;&gt;AppModule</title>
<path fill="none" stroke="#000000" d="M1633,-122.1871C1633,-137.1824 1633,-156 1633,-156 1633,-156 1555.8826,-156 1555.8826,-156"/>
<polygon fill="#000000" stroke="#000000" points="1555.8826,-152.5001 1545.8826,-156 1555.8826,-159.5001 1555.8826,-152.5001"/>
</g>
<!-- LoginModule -->
<g id="node9" class="node">
<title>LoginModule</title>
<polygon fill="#8dd3c7" stroke="#000000" points="1550.493,-122 1547.493,-126 1526.493,-126 1523.493,-122 1457.507,-122 1457.507,-86 1550.493,-86 1550.493,-122"/>
<text text-anchor="middle" x="1504" y="-99.8" font-family="Times,serif" font-size="14.00" fill="#000000">LoginModule</text>
</g>
<!-- LoginModule&#45;&gt;AppModule -->
<g id="edge8" class="edge">
<title>LoginModule&#45;&gt;AppModule</title>
<path fill="none" stroke="#000000" d="M1504,-122.1061C1504,-122.1061 1504,-140.991 1504,-140.991"/>
<polygon fill="#000000" stroke="#000000" points="1500.5001,-140.9909 1504,-150.991 1507.5001,-140.991 1500.5001,-140.9909"/>
</g>
<!-- SideMenuNavigationModule -->
<g id="node10" class="node">
<title>SideMenuNavigationModule</title>
<polygon fill="#8dd3c7" stroke="#000000" points="1439.8047,-122 1436.8047,-126 1415.8047,-126 1412.8047,-122 1260.1953,-122 1260.1953,-86 1439.8047,-86 1439.8047,-122"/>
<text text-anchor="middle" x="1350" y="-99.8" font-family="Times,serif" font-size="14.00" fill="#000000">SideMenuNavigationModule</text>
</g>
<!-- SideMenuNavigationModule&#45;&gt;AppModule -->
<g id="edge9" class="edge">
<title>SideMenuNavigationModule&#45;&gt;AppModule</title>
<path fill="none" stroke="#000000" d="M1350,-122.1871C1350,-137.1824 1350,-156 1350,-156 1350,-156 1452.3254,-156 1452.3254,-156"/>
<polygon fill="#000000" stroke="#000000" points="1452.3254,-159.5001 1462.3254,-156 1452.3253,-152.5001 1452.3254,-159.5001"/>
</g>
<!-- EmployeeSetupPageModule -->
<g id="node11" class="node">
<title>EmployeeSetupPageModule</title>
<polygon fill="#8dd3c7" stroke="#000000" points="1242.9129,-122 1239.9129,-126 1218.9129,-126 1215.9129,-122 1067.0871,-122 1067.0871,-86 1242.9129,-86 1242.9129,-122"/>
<text text-anchor="middle" x="1155" y="-99.8" font-family="Times,serif" font-size="14.00" fill="#000000">EmployeeSetupPageModule</text>
</g>
<!-- EmployeeSetupPageModule&#45;&gt;AppModule -->
<g id="edge10" class="edge">
<title>EmployeeSetupPageModule&#45;&gt;AppModule</title>
<path fill="none" stroke="#000000" d="M1155,-122.027C1155,-138.3976 1155,-160 1155,-160 1155,-160 1452.2491,-160 1452.2491,-160"/>
<polygon fill="#000000" stroke="#000000" points="1452.2491,-163.5001 1462.2491,-160 1452.2491,-156.5001 1452.2491,-163.5001"/>
</g>
<!-- HttpClientModule -->
<g id="node12" class="node">
<title>HttpClientModule</title>
<polygon fill="#8dd3c7" stroke="#000000" points="1049.1611,-122 1046.1611,-126 1025.1611,-126 1022.1611,-122 930.8389,-122 930.8389,-86 1049.1611,-86 1049.1611,-122"/>
<text text-anchor="middle" x="990" y="-99.8" font-family="Times,serif" font-size="14.00" fill="#000000">HttpClientModule</text>
</g>
<!-- HttpClientModule&#45;&gt;AppModule -->
<g id="edge11" class="edge">
<title>HttpClientModule&#45;&gt;AppModule</title>
<path fill="none" stroke="#000000" d="M990,-122.302C990,-140.2699 990,-165 990,-165 990,-165 1451.9372,-165 1451.9372,-165"/>
<polygon fill="#000000" stroke="#000000" points="1451.9373,-168.5001 1461.9372,-165 1451.9372,-161.5001 1451.9373,-168.5001"/>
</g>
<!-- StatusBar -->
<g id="node14" class="node">
<title>StatusBar</title>
<ellipse fill="#fdb462" stroke="#000000" cx="858" cy="-104" rx="48.6694" ry="18"/>
<text text-anchor="middle" x="858" y="-99.8" font-family="Times,serif" font-size="14.00" fill="#000000">StatusBar</text>
</g>
<!-- StatusBar&#45;&gt;AppModule -->
<g id="edge13" class="edge">
<title>StatusBar&#45;&gt;AppModule</title>
<path fill="none" stroke="#000000" d="M858,-122.1061C858,-141.3391 858,-169 858,-169 858,-169 1452.1119,-169 1452.1119,-169"/>
<polygon fill="#000000" stroke="#000000" points="1452.1119,-172.5001 1462.1119,-169 1452.1118,-165.5001 1452.1119,-172.5001"/>
</g>
<!-- SplashScreen -->
<g id="node15" class="node">
<title>SplashScreen</title>
<ellipse fill="#fdb462" stroke="#000000" cx="728" cy="-104" rx="63.1189" ry="18"/>
<text text-anchor="middle" x="728" y="-99.8" font-family="Times,serif" font-size="14.00" fill="#000000">SplashScreen</text>
</g>
<!-- SplashScreen&#45;&gt;AppModule -->
<g id="edge14" class="edge">
<title>SplashScreen&#45;&gt;AppModule</title>
<path fill="none" stroke="#000000" d="M728,-122.0267C728,-142.7672 728,-174 728,-174 728,-174 1452.2789,-174 1452.2789,-174"/>
<polygon fill="#000000" stroke="#000000" points="1452.2789,-177.5001 1462.2789,-174 1452.2788,-170.5001 1452.2789,-177.5001"/>
</g>
<!-- XmlJson -->
<g id="node16" class="node">
<title>XmlJson</title>
<ellipse fill="#fdb462" stroke="#000000" cx="602" cy="-104" rx="45.2439" ry="18"/>
<text text-anchor="middle" x="602" y="-99.8" font-family="Times,serif" font-size="14.00" fill="#000000">XmlJson</text>
</g>
<!-- XmlJson&#45;&gt;AppModule -->
<g id="edge15" class="edge">
<title>XmlJson&#45;&gt;AppModule</title>
<path fill="none" stroke="#000000" d="M602,-122.2921C602,-144.2057 602,-178 602,-178 602,-178 1452.3037,-178 1452.3037,-178"/>
<polygon fill="#000000" stroke="#000000" points="1452.3037,-181.5001 1462.3037,-178 1452.3037,-174.5001 1452.3037,-181.5001"/>
</g>
<!-- { provide: RouteReuseStrategy, useClass: IonicRouteStrategy } -->
<g id="node17" class="node">
<title>{ provide: RouteReuseStrategy, useClass: IonicRouteStrategy }</title>
<ellipse fill="#fdb462" stroke="#000000" cx="281" cy="-104" rx="257.2723" ry="18"/>
<text text-anchor="middle" x="281" y="-99.8" font-family="Times,serif" font-size="14.00" fill="#000000">{ provide: RouteReuseStrategy, useClass: IonicRouteStrategy }</text>
</g>
<!-- { provide: RouteReuseStrategy, useClass: IonicRouteStrategy }&#45;&gt;AppModule -->
<g id="edge16" class="edge">
<title>{ provide: RouteReuseStrategy, useClass: IonicRouteStrategy }&#45;&gt;AppModule</title>
<path fill="none" stroke="#000000" d="M281,-122.3228C281,-145.6602 281,-183 281,-183 281,-183 1452.2554,-183 1452.2554,-183"/>
<polygon fill="#000000" stroke="#000000" points="1452.2554,-186.5001 1462.2554,-183 1452.2553,-179.5001 1452.2554,-186.5001"/>
</g>
</g>
</svg>
