<?xml version="1.0" encoding="UTF-8" standalone="no"?>
<!DOCTYPE svg PUBLIC "-//W3C//DTD SVG 1.1//EN"
 "http://www.w3.org/Graphics/SVG/1.1/DTD/svg11.dtd">
<!-- Generated by graphviz version 2.40.1 (20161225.0304)
 -->
<!-- Title: dependencies Pages: 1 -->
<svg width="2279pt" height="211pt"
 viewBox="0.00 0.00 2279.00 211.00" xmlns="http://www.w3.org/2000/svg" xmlns:xlink="http://www.w3.org/1999/xlink">
<g id="graph0" class="graph" transform="scale(1 1) rotate(0) translate(4 207)">
<title>dependencies</title>
<polygon fill="#ffffff" stroke="transparent" points="-4,4 -4,-207 2275,-207 2275,4 -4,4"/>
<text text-anchor="start" x="1114.5091" y="-42.4" font-family="sans-serif" font-weight="bold" font-size="14.00" fill="#000000">Legend</text>
<polygon fill="#ffffb3" stroke="transparent" points="901.5,-10 901.5,-30 921.5,-30 921.5,-10 901.5,-10"/>
<text text-anchor="start" x="925.129" y="-15.4" font-family="sans-serif" font-size="14.00" fill="#000000"> &#160;Declarations</text>
<polygon fill="#8dd3c7" stroke="transparent" points="1014.5,-10 1014.5,-30 1034.5,-30 1034.5,-10 1014.5,-10"/>
<text text-anchor="start" x="1038.2251" y="-15.4" font-family="sans-serif" font-size="14.00" fill="#000000"> &#160;Module</text>
<polygon fill="#80b1d3" stroke="transparent" points="1100.5,-10 1100.5,-30 1120.5,-30 1120.5,-10 1100.5,-10"/>
<text text-anchor="start" x="1124.2812" y="-15.4" font-family="sans-serif" font-size="14.00" fill="#000000"> &#160;Bootstrap</text>
<polygon fill="#fdb462" stroke="transparent" points="1197.5,-10 1197.5,-30 1217.5,-30 1217.5,-10 1197.5,-10"/>
<text text-anchor="start" x="1221.1732" y="-15.4" font-family="sans-serif" font-size="14.00" fill="#000000"> &#160;Providers</text>
<polygon fill="#fb8072" stroke="transparent" points="1293.5,-10 1293.5,-30 1313.5,-30 1313.5,-10 1293.5,-10"/>
<text text-anchor="start" x="1317.2258" y="-15.4" font-family="sans-serif" font-size="14.00" fill="#000000"> &#160;Exports</text>
<g id="clust1" class="cluster">
<title>cluster_SideMenuNavigationModule</title>
<polygon fill="none" stroke="#000000" stroke-dasharray="1,5" points="8,-70 8,-195 2263,-195 2263,-70 8,-70"/>
</g>
<g id="clust2" class="cluster">
<title>cluster_SideMenuNavigationModule_declarations</title>
<polygon fill="none" stroke="#000000" points="2037,-78 2037,-130 2255,-130 2255,-78 2037,-78"/>
</g>
<g id="clust4" class="cluster">
<title>cluster_SideMenuNavigationModule_imports</title>
<polygon fill="none" stroke="#000000" points="148,-78 148,-130 2029,-130 2029,-78 148,-78"/>
</g>
<g id="clust7" class="cluster">
<title>cluster_SideMenuNavigationModule_providers</title>
<polygon fill="none" stroke="#000000" points="16,-78 16,-130 140,-130 140,-78 16,-78"/>
</g>
<!-- SideMenuNavigationComponent -->
<g id="node1" class="node">
<title>SideMenuNavigationComponent</title>
<polygon fill="#ffffb3" stroke="#000000" points="2246.587,-122 2045.413,-122 2045.413,-86 2246.587,-86 2246.587,-122"/>
<text text-anchor="middle" x="2146" y="-99.8" font-family="Times,serif" font-size="14.00" fill="#000000">SideMenuNavigationComponent</text>
</g>
<!-- SideMenuNavigationModule -->
<g id="node2" class="node">
<title>SideMenuNavigationModule</title>
<polygon fill="#8dd3c7" stroke="#000000" points="1243.8047,-187 1240.8047,-191 1219.8047,-191 1216.8047,-187 1064.1953,-187 1064.1953,-151 1243.8047,-151 1243.8047,-187"/>
<text text-anchor="middle" x="1154" y="-164.8" font-family="Times,serif" font-size="14.00" fill="#000000">SideMenuNavigationModule</text>
</g>
<!-- SideMenuNavigationComponent&#45;&gt;SideMenuNavigationModule -->
<g id="edge1" class="edge">
<title>SideMenuNavigationComponent&#45;&gt;SideMenuNavigationModule</title>
<path fill="none" stroke="#000000" d="M2146,-122.0908C2146,-145.1328 2146,-182 2146,-182 2146,-182 1253.783,-182 1253.783,-182"/>
<polygon fill="#000000" stroke="#000000" points="1253.783,-178.5001 1243.783,-182 1253.783,-185.5001 1253.783,-178.5001"/>
</g>
<!-- CommonModule -->
<g id="node3" class="node">
<title>CommonModule</title>
<polygon fill="#8dd3c7" stroke="#000000" points="2020.6681,-122 2017.6681,-126 1996.6681,-126 1993.6681,-122 1909.3319,-122 1909.3319,-86 2020.6681,-86 2020.6681,-122"/>
<text text-anchor="middle" x="1965" y="-99.8" font-family="Times,serif" font-size="14.00" fill="#000000">CommonModule</text>
</g>
<!-- CommonModule&#45;&gt;SideMenuNavigationModule -->
<g id="edge2" class="edge">
<title>CommonModule&#45;&gt;SideMenuNavigationModule</title>
<path fill="none" stroke="#000000" d="M1965,-122.0449C1965,-143.6623 1965,-177 1965,-177 1965,-177 1253.8899,-177 1253.8899,-177"/>
<polygon fill="#000000" stroke="#000000" points="1253.8899,-173.5001 1243.8899,-177 1253.8898,-180.5001 1253.8899,-173.5001"/>
</g>
<!-- FormsModule -->
<g id="node4" class="node">
<title>FormsModule</title>
<polygon fill="#8dd3c7" stroke="#000000" points="1891.8288,-122 1888.8288,-126 1867.8288,-126 1864.8288,-122 1796.1712,-122 1796.1712,-86 1891.8288,-86 1891.8288,-122"/>
<text text-anchor="middle" x="1844" y="-99.8" font-family="Times,serif" font-size="14.00" fill="#000000">FormsModule</text>
</g>
<!-- FormsModule&#45;&gt;SideMenuNavigationModule -->
<g id="edge3" class="edge">
<title>FormsModule&#45;&gt;SideMenuNavigationModule</title>
<path fill="none" stroke="#000000" d="M1844,-122.2228C1844,-142.3652 1844,-172 1844,-172 1844,-172 1253.8515,-172 1253.8515,-172"/>
<polygon fill="#000000" stroke="#000000" points="1253.8515,-168.5001 1243.8515,-172 1253.8515,-175.5001 1253.8515,-168.5001"/>
</g>
<!-- IonicModule -->
<g id="node5" class="node">
<title>IonicModule</title>
<polygon fill="#8dd3c7" stroke="#000000" points="1778.3162,-122 1775.3162,-126 1754.3162,-126 1751.3162,-122 1689.6838,-122 1689.6838,-86 1778.3162,-86 1778.3162,-122"/>
<text text-anchor="middle" x="1734" y="-99.8" font-family="Times,serif" font-size="14.00" fill="#000000">IonicModule</text>
</g>
<!-- IonicModule&#45;&gt;SideMenuNavigationModule -->
<g id="edge4" class="edge">
<title>IonicModule&#45;&gt;SideMenuNavigationModule</title>
<path fill="none" stroke="#000000" d="M1734,-122.2222C1734,-140.8285 1734,-167 1734,-167 1734,-167 1253.6711,-167 1253.6711,-167"/>
<polygon fill="#000000" stroke="#000000" points="1253.6711,-163.5001 1243.6711,-167 1253.671,-170.5001 1253.6711,-163.5001"/>
</g>
<!-- InlineSVGModule.forRoot() -->
<g id="node6" class="node">
<title>InlineSVGModule.forRoot()</title>
<polygon fill="#8dd3c7" stroke="#000000" points="1672.0721,-122 1669.0721,-126 1648.0721,-126 1645.0721,-122 1495.9279,-122 1495.9279,-86 1672.0721,-86 1672.0721,-122"/>
<text text-anchor="middle" x="1584" y="-99.8" font-family="Times,serif" font-size="14.00" fill="#000000">InlineSVGModule.forRoot()</text>
</g>
<!-- InlineSVGModule.forRoot()&#45;&gt;SideMenuNavigationModule -->
<g id="edge5" class="edge">
<title>InlineSVGModule.forRoot()&#45;&gt;SideMenuNavigationModule</title>
<path fill="none" stroke="#000000" d="M1584,-122.0336C1584,-139.0597 1584,-162 1584,-162 1584,-162 1253.8803,-162 1253.8803,-162"/>
<polygon fill="#000000" stroke="#000000" points="1253.8803,-158.5001 1243.8803,-162 1253.8802,-165.5001 1253.8803,-158.5001"/>
</g>
<!-- HttpClientModule -->
<g id="node7" class="node">
<title>HttpClientModule</title>
<polygon fill="#8dd3c7" stroke="#000000" points="1477.1611,-122 1474.1611,-126 1453.1611,-126 1450.1611,-122 1358.8389,-122 1358.8389,-86 1477.1611,-86 1477.1611,-122"/>
<text text-anchor="middle" x="1418" y="-99.8" font-family="Times,serif" font-size="14.00" fill="#000000">HttpClientModule</text>
</g>
<!-- HttpClientModule&#45;&gt;SideMenuNavigationModule -->
<g id="edge6" class="edge">
<title>HttpClientModule&#45;&gt;SideMenuNavigationModule</title>
<path fill="none" stroke="#000000" d="M1418,-122.2396C1418,-137.5706 1418,-157 1418,-157 1418,-157 1253.7467,-157 1253.7467,-157"/>
<polygon fill="#000000" stroke="#000000" points="1253.7468,-153.5001 1243.7467,-157 1253.7467,-160.5001 1253.7468,-153.5001"/>
</g>
<!-- EmployeeSetupPageModule -->
<g id="node8" class="node">
<title>EmployeeSetupPageModule</title>
<polygon fill="#8dd3c7" stroke="#000000" points="1340.9129,-122 1337.9129,-126 1316.9129,-126 1313.9129,-122 1165.0871,-122 1165.0871,-86 1340.9129,-86 1340.9129,-122"/>
<text text-anchor="middle" x="1253" y="-99.8" font-family="Times,serif" font-size="14.00" fill="#000000">EmployeeSetupPageModule</text>
</g>
<!-- EmployeeSetupPageModule&#45;&gt;SideMenuNavigationModule -->
<g id="edge7" class="edge">
<title>EmployeeSetupPageModule&#45;&gt;SideMenuNavigationModule</title>
<path fill="none" stroke="#000000" d="M1204.473,-122.1061C1204.473,-122.1061 1204.473,-140.991 1204.473,-140.991"/>
<polygon fill="#000000" stroke="#000000" points="1200.9731,-140.9909 1204.473,-150.991 1207.9731,-140.991 1200.9731,-140.9909"/>
</g>
<!-- PublicPersonalDetailsModule -->
<g id="node9" class="node">
<title>PublicPersonalDetailsModule</title>
<polygon fill="#8dd3c7" stroke="#000000" points="1147.6881,-122 1144.6881,-126 1123.6881,-126 1120.6881,-122 964.3119,-122 964.3119,-86 1147.6881,-86 1147.6881,-122"/>
<text text-anchor="middle" x="1056" y="-99.8" font-family="Times,serif" font-size="14.00" fill="#000000">PublicPersonalDetailsModule</text>
</g>
<!-- PublicPersonalDetailsModule&#45;&gt;SideMenuNavigationModule -->
<g id="edge8" class="edge">
<title>PublicPersonalDetailsModule&#45;&gt;SideMenuNavigationModule</title>
<path fill="none" stroke="#000000" d="M1105.9709,-122.1061C1105.9709,-122.1061 1105.9709,-140.991 1105.9709,-140.991"/>
<polygon fill="#000000" stroke="#000000" points="1102.471,-140.9909 1105.9709,-150.991 1109.471,-140.991 1102.471,-140.9909"/>
</g>
<!-- MatMenuModule -->
<g id="node10" class="node">
<title>MatMenuModule</title>
<polygon fill="#8dd3c7" stroke="#000000" points="946.2591,-122 943.2591,-126 922.2591,-126 919.2591,-122 831.7409,-122 831.7409,-86 946.2591,-86 946.2591,-122"/>
<text text-anchor="middle" x="889" y="-99.8" font-family="Times,serif" font-size="14.00" fill="#000000">MatMenuModule</text>
</g>
<!-- MatMenuModule&#45;&gt;SideMenuNavigationModule -->
<g id="edge9" class="edge">
<title>MatMenuModule&#45;&gt;SideMenuNavigationModule</title>
<path fill="none" stroke="#000000" d="M889,-122.2396C889,-137.5706 889,-157 889,-157 889,-157 1054.2831,-157 1054.2831,-157"/>
<polygon fill="#000000" stroke="#000000" points="1054.2831,-160.5001 1064.2831,-157 1054.2831,-153.5001 1054.2831,-160.5001"/>
</g>
<!-- UpdatePasswordModule -->
<g id="node11" class="node">
<title>UpdatePasswordModule</title>
<polygon fill="#8dd3c7" stroke="#000000" points="813.6302,-122 810.6302,-126 789.6302,-126 786.6302,-122 660.3698,-122 660.3698,-86 813.6302,-86 813.6302,-122"/>
<text text-anchor="middle" x="737" y="-99.8" font-family="Times,serif" font-size="14.00" fill="#000000">UpdatePasswordModule</text>
</g>
<!-- UpdatePasswordModule&#45;&gt;SideMenuNavigationModule -->
<g id="edge10" class="edge">
<title>UpdatePasswordModule&#45;&gt;SideMenuNavigationModule</title>
<path fill="none" stroke="#000000" d="M737,-122.0336C737,-139.0597 737,-162 737,-162 737,-162 1054.2869,-162 1054.2869,-162"/>
<polygon fill="#000000" stroke="#000000" points="1054.287,-165.5001 1064.2869,-162 1054.2869,-158.5001 1054.287,-165.5001"/>
</g>
<!-- EmailInvitationModule -->
<g id="node12" class="node">
<title>EmailInvitationModule</title>
<polygon fill="#8dd3c7" stroke="#000000" points="641.927,-122 638.927,-126 617.927,-126 614.927,-122 494.073,-122 494.073,-86 641.927,-86 641.927,-122"/>
<text text-anchor="middle" x="568" y="-99.8" font-family="Times,serif" font-size="14.00" fill="#000000">EmailInvitationModule</text>
</g>
<!-- EmailInvitationModule&#45;&gt;SideMenuNavigationModule -->
<g id="edge11" class="edge">
<title>EmailInvitationModule&#45;&gt;SideMenuNavigationModule</title>
<path fill="none" stroke="#000000" d="M568,-122.2222C568,-140.8285 568,-167 568,-167 568,-167 1054.0417,-167 1054.0417,-167"/>
<polygon fill="#000000" stroke="#000000" points="1054.0418,-170.5001 1064.0417,-167 1054.0417,-163.5001 1054.0418,-170.5001"/>
</g>
<!-- DashboardModule -->
<g id="node13" class="node">
<title>DashboardModule</title>
<polygon fill="#8dd3c7" stroke="#000000" points="476.191,-122 473.191,-126 452.191,-126 449.191,-122 355.809,-122 355.809,-86 476.191,-86 476.191,-122"/>
<text text-anchor="middle" x="416" y="-99.8" font-family="Times,serif" font-size="14.00" fill="#000000">DashboardModule</text>
</g>
<!-- DashboardModule&#45;&gt;SideMenuNavigationModule -->
<g id="edge12" class="edge">
<title>DashboardModule&#45;&gt;SideMenuNavigationModule</title>
<path fill="none" stroke="#000000" d="M416,-122.2228C416,-142.3652 416,-172 416,-172 416,-172 1054.2445,-172 1054.2445,-172"/>
<polygon fill="#000000" stroke="#000000" points="1054.2446,-175.5001 1064.2445,-172 1054.2445,-168.5001 1054.2446,-175.5001"/>
</g>
<!-- RouterModule.forChild(args) -->
<g id="node14" class="node">
<title>RouterModule.forChild(args)</title>
<polygon fill="#8dd3c7" stroke="#000000" points="337.7323,-122 334.7323,-126 313.7323,-126 310.7323,-122 156.2677,-122 156.2677,-86 337.7323,-86 337.7323,-122"/>
<text text-anchor="middle" x="247" y="-99.8" font-family="Times,serif" font-size="14.00" fill="#000000">RouterModule.forChild(args)</text>
</g>
<!-- RouterModule.forChild(args)&#45;&gt;SideMenuNavigationModule -->
<g id="edge13" class="edge">
<title>RouterModule.forChild(args)&#45;&gt;SideMenuNavigationModule</title>
<path fill="none" stroke="#000000" d="M247,-122.0449C247,-143.6623 247,-177 247,-177 247,-177 1054.1347,-177 1054.1347,-177"/>
<polygon fill="#000000" stroke="#000000" points="1054.1347,-180.5001 1064.1347,-177 1054.1346,-173.5001 1054.1347,-180.5001"/>
</g>
<!-- AuthGuard -->
<g id="node15" class="node">
<title>AuthGuard</title>
<ellipse fill="#fdb462" stroke="#000000" cx="78" cy="-104" rx="54.4566" ry="18"/>
<text text-anchor="middle" x="78" y="-99.8" font-family="Times,serif" font-size="14.00" fill="#000000">AuthGuard</text>
</g>
<!-- AuthGuard&#45;&gt;SideMenuNavigationModule -->
<g id="edge14" class="edge">
<title>AuthGuard&#45;&gt;SideMenuNavigationModule</title>
<path fill="none" stroke="#000000" d="M78,-122.0908C78,-145.1328 78,-182 78,-182 78,-182 1054.1116,-182 1054.1116,-182"/>
<polygon fill="#000000" stroke="#000000" points="1054.1116,-185.5001 1064.1116,-182 1054.1115,-178.5001 1054.1116,-185.5001"/>
</g>
</g>
</svg>
